<svg width="146" height="85" viewBox="0 0 146 85" fill="none" xmlns="http://www.w3.org/2000/svg">
<path d="M20.8388 26.7596C23.7509 26.7596 26.3825 27.1842 28.7335 28.0334C31.1113 28.8827 33.1284 30.0504 34.7848 31.5366C36.4412 32.9963 37.7103 34.7081 38.5919 36.672C39.5003 38.6093 39.9544 40.6927 39.9544 42.922V68.758C39.9544 71.1996 39.4735 73.4289 38.5117 75.4459C37.55 77.4363 36.1741 79.1481 34.3841 80.5812C32.6208 81.9878 30.4701 83.0759 27.932 83.8455C25.4207 84.6152 22.5888 85 19.4362 85C16.4707 85 13.7857 84.5886 11.3812 83.7659C9.00344 82.9167 6.97299 81.7622 5.28986 80.3025C3.60672 78.8429 2.29761 77.1311 1.36254 75.1672C0.454179 73.1768 0 71.0403 0 68.758V42.922C0 40.6927 0.440821 38.6093 1.32246 36.672C2.20411 34.7081 3.45978 32.9963 5.08948 31.5366C6.71918 30.0504 8.6962 28.8827 11.0205 28.0334C13.3716 27.1842 15.9898 26.7596 18.8752 26.7596H20.8388ZM24.0448 72.5796L25.9283 70.7882L13.946 57.0939L25.9283 43.3997L24.0448 41.5287L10.9805 56.5366V57.6115L24.0448 72.5796Z" fill="#EF523D"/>
<path d="M125.161 26.7596C122.249 26.7596 119.618 27.1842 117.266 28.0334C114.889 28.8827 112.872 30.0504 111.215 31.5366C109.559 32.9963 108.29 34.7081 107.408 36.672C106.5 38.6093 106.046 40.6927 106.046 42.922V68.758C106.046 71.1996 106.526 73.4289 107.488 75.4459C108.45 77.4363 109.826 79.1481 111.616 80.5812C113.379 81.9878 115.53 83.0759 118.068 83.8455C120.579 84.6152 123.411 85 126.564 85C129.529 85 132.214 84.5886 134.619 83.7659C136.997 82.9167 139.027 81.7622 140.71 80.3025C142.393 78.8429 143.702 77.1311 144.637 75.1672C145.546 73.1768 146 71.0403 146 68.758V42.922C146 40.6927 145.559 38.6093 144.678 36.672C143.796 34.7081 142.54 32.9963 140.911 31.5366C139.281 30.0504 137.304 28.8827 134.979 28.0334C132.628 27.1842 130.01 26.7596 127.125 26.7596H125.161ZM121.955 72.5796L120.072 70.7882L132.054 57.0939L120.072 43.3997L121.955 41.5287L135.02 56.5366V57.6115L121.955 72.5796Z" fill="#EF523D"/>
<path d="M102.647 20.7006C102.647 23.5934 102.22 26.2075 101.365 28.543C100.51 30.905 99.3344 32.9087 97.8383 34.5541C96.3689 36.1996 94.6457 37.4602 92.6686 38.336C90.7183 39.2383 88.6211 39.6895 86.3769 39.6895H60.3685C57.9106 39.6895 55.6664 39.2118 53.6359 38.2564C51.6322 37.301 49.909 35.9342 48.4663 34.1561C47.0503 32.4045 45.9549 30.268 45.1802 27.7468C44.4054 25.2521 44.018 22.439 44.018 19.3073C44.018 16.3615 44.4321 13.6943 45.2603 11.3057C46.1152 8.94374 47.2774 6.92675 48.7468 5.25478C50.2162 3.5828 51.9394 2.28238 53.9164 1.3535C55.9202 0.451168 58.0709 0 60.3685 0H86.3769C88.6211 0 90.7183 0.437898 92.6686 1.31369C94.6457 2.18949 96.3689 3.43684 97.8383 5.05573C99.3344 6.67463 100.51 8.63854 101.365 10.9475C102.22 13.2829 102.647 15.8838 102.647 18.75V20.7006ZM56.5213 23.8854L58.3247 25.7564L72.1103 13.8535L85.896 25.7564L87.7795 23.8854L72.6714 10.9076H71.5894L56.5213 23.8854Z" fill="#EF523D"/>
<path d="M102.647 63.1847C102.647 60.2919 102.22 57.6778 101.365 55.3424C100.51 52.9804 99.3344 50.9766 97.8383 49.3312C96.3689 47.6858 94.6457 46.4252 92.6686 45.5494C90.7183 44.647 88.6211 44.1959 86.3769 44.1959H60.3685C57.9106 44.1959 55.6664 44.6736 53.6359 45.629C51.6322 46.5844 49.909 47.9512 48.4663 49.7293C47.0503 51.4809 45.9549 53.6173 45.1802 56.1385C44.4054 58.6332 44.018 61.4464 44.018 64.578C44.018 67.5239 44.4321 70.1911 45.2603 72.5796C46.1152 74.9416 47.2774 76.9586 48.7468 78.6306C50.2162 80.3025 51.9394 81.603 53.9164 82.5318C55.9202 83.4342 58.0709 83.8854 60.3685 83.8854H86.3769C88.6211 83.8854 90.7183 83.4475 92.6686 82.5717C94.6457 81.6959 96.3689 80.4485 97.8383 78.8296C99.3344 77.2107 100.51 75.2468 101.365 72.9379C102.22 70.6024 102.647 68.0016 102.647 65.1354V63.1847ZM56.5213 60L58.3247 58.129L72.1103 70.0318L85.896 58.129L87.7795 60L72.6714 72.9777H71.5894L56.5213 60Z" fill="#EF523D"/>
</svg>
