<svg width="321" height="193" viewBox="0 0 321 193" fill="none" xmlns="http://www.w3.org/2000/svg">
<path d="M101 103.5C101 124.607 80.575 142 55 142C29.425 142 9 124.607 9 103.5C9 82.3929 29.425 65 55 65C80.575 65 101 82.3929 101 103.5Z" fill="#53E03C" stroke="#2D9A07" stroke-width="2"/>
<path d="M171 125.5C171 146.607 150.575 164 125 164C99.425 164 79 146.607 79 125.5C79 104.393 99.425 87 125 87C150.575 87 171 104.393 171 125.5Z" fill="#53E03C" stroke="#2D9A07" stroke-width="2"/>
<path d="M238 103.5C238 124.607 217.575 142 192 142C166.425 142 146 124.607 146 103.5C146 82.3929 166.425 65 192 65C217.575 65 238 82.3929 238 103.5Z" fill="#53E03C" stroke="#2D9A07" stroke-width="2"/>
<path d="M311 64C311 91.062 289.062 113 262 113C234.938 113 213 91.062 213 64C213 36.938 234.938 15 262 15C289.062 15 311 36.938 311 64Z" fill="#53E03C" stroke="#2D9A07" stroke-width="2"/>
<path d="M239.016 56.5C238.74 52.5031 242.01 49 246.016 49C250.023 49 253.292 52.5031 253.016 56.5" stroke="black" stroke-opacity="0.75" stroke-width="6" stroke-linecap="round"/>
<path d="M271.016 56.5C270.74 52.5031 274.01 49 278.016 49C282.023 49 285.292 52.5031 285.016 56.5" stroke="black" stroke-opacity="0.75" stroke-width="6" stroke-linecap="round"/>
<path d="M271.177 73.0004C271.588 76.4839 267.394 79.6063 262.199 79.6854C257.003 79.7645 252.716 76.7712 253.021 73.2768" stroke="black" stroke-opacity="0.75" stroke-width="6" stroke-linecap="round"/>
</svg>
