<svg width="168" height="150" viewBox="0 0 168 150" fill="none" xmlns="http://www.w3.org/2000/svg">
<path d="M156 55.3906C156 88.8643 121.974 116 79.9998 116C38.0262 116 0 88.8637 0 55.3901C3.08033 3.78809 -14.5356 55.3905 71.9647 53.6706C71.9647 -19.7229 156 -16.5903 156 55.3906Z" fill="#8A46FA"/>
<line x1="146.5" y1="34.5" x2="165.5" y2="34.5" stroke="#8A46FA" stroke-width="5" stroke-linecap="round"/>
<line x1="72.5" y1="108.5" x2="72.5" y2="147.5" stroke="#8A46FA" stroke-width="5" stroke-linecap="round"/>
<line x1="98.5" y1="108.5" x2="98.5" y2="147.5" stroke="#8A46FA" stroke-width="5" stroke-linecap="round"/>
<ellipse cx="120" cy="36" rx="7" ry="6" fill="white"/>
<path d="M113.905 64.1691C111.613 79.7415 95.3597 90.2468 77.6017 87.6334C59.8437 85.0199 -2.99563 58.999 38.5021 54.4998C79.9999 50.0007 70.5 26 85.901 31.2408C101.502 32.0005 116.197 48.5967 113.905 64.1691Z" fill="#8A46FA"/>
</svg>
