<?xml version="1.0" encoding="UTF-8" standalone="no"?>
<!-- Created with Inkscape (http://www.inkscape.org/) -->
<svg xmlns:inkscape="http://www.inkscape.org/namespaces/inkscape" xmlns:rdf="http://www.w3.org/1999/02/22-rdf-syntax-ns#" xmlns="http://www.w3.org/2000/svg" xmlns:xlink="http://www.w3.org/1999/xlink" xmlns:ns1="http://sozi.baierouge.fr" xmlns:cc="http://creativecommons.org/ns#" xmlns:sodipodi="http://sodipodi.sourceforge.net/DTD/sodipodi-0.dtd" xmlns:dc="http://purl.org/dc/elements/1.1/" id="svg2" xml:space="preserve" viewBox="0 0 149.22 185" version="1.1" inkscape:version="0.91 r13725">
  <defs id="defs6">
    <clipPath id="clipPath18">
      <path id="path20" d="m29.398 15.961c6.161 1.812 13.602 2.719 22.321 2.719 8.722 0 16.176-0.907 22.363-2.719 6.16-1.813 9.238-4.016 9.238-6.602s-3.078-4.785-9.238-6.597c-6.187-1.84-13.641-2.762-22.363-2.762-8.719 0-16.16 0.922-22.321 2.762-6.156 1.812-9.238 4.011-9.238 6.597s3.082 4.789 9.238 6.602z" inkscape:connector-curvature="0"/>
    </clipPath>
    <clipPath id="clipPath26">
      <path id="path28" d="m-39.7-38.984h80v76.836h-80v-76.836z" inkscape:connector-curvature="0"/>
    </clipPath>
    <radialGradient id="radialGradient30" gradientUnits="userSpaceOnUse" cy="0" cx="-.0254" r="29.02">
      <stop id="stop32" style="stop-color:#ffffff;stop-opacity:.45879" offset="0"/>
      <stop id="stop34" style="stop-color:#ffffff;stop-opacity:0" offset="1"/>
    </radialGradient>
    <mask id="mask36">
      <g id="g38">
        <g id="g40" clip-path="url(#clipPath26)">
          <path id="path42" style="fill:url(#radialGradient30)" d="m-39.7-38.984h80v76.836h-80v-76.836z" inkscape:connector-curvature="0"/>
        </g>
      </g>
    </mask>
    <radialGradient id="radialGradient46" gradientUnits="userSpaceOnUse" cy="0" cx="-.0254" r="29.02">
      <stop id="stop48" style="stop-color:#000000" offset="0"/>
      <stop id="stop50" style="stop-color:#000000" offset="1"/>
    </radialGradient>
    <clipPath id="clipPath58">
      <path id="path60" d="m46 6h13v7h-13v-7z" inkscape:connector-curvature="0"/>
    </clipPath>
    <mask id="mask62">
      <g id="g64">
        <g id="g66" clip-path="url(#clipPath58)">
          <path id="path68" style="fill:#000000;fill-opacity:.16020" d="m46 6h13v7h-13v-7z" inkscape:connector-curvature="0"/>
        </g>
      </g>
    </mask>
    <clipPath id="clipPath74">
      <path id="path76" d="m46 6h13v7h-13v-7z" inkscape:connector-curvature="0"/>
    </clipPath>
    <clipPath id="clipPath78">
      <path id="path80" d="m46 6h13v7h-13v-7z" inkscape:connector-curvature="0"/>
    </clipPath>
    <clipPath id="clipPath136">
      <path id="path138" d="m20 75h28v15h-28v-15z" inkscape:connector-curvature="0"/>
    </clipPath>
    <mask id="mask140">
      <g id="g142">
        <g id="g144" clip-path="url(#clipPath136)">
          <path id="path146" style="fill:#000000;fill-opacity:.5" d="m20 75h28v15h-28v-15z" inkscape:connector-curvature="0"/>
        </g>
      </g>
    </mask>
    <clipPath id="clipPath152">
      <path id="path154" d="m20 75h28v15h-28v-15z" inkscape:connector-curvature="0"/>
    </clipPath>
    <clipPath id="clipPath156">
      <path id="path158" d="m20 75h28v15h-28v-15z" inkscape:connector-curvature="0"/>
    </clipPath>
    <clipPath id="clipPath188">
      <path id="path190" d="m17 79h36v11h-36v-11z" inkscape:connector-curvature="0"/>
    </clipPath>
    <mask id="mask192">
      <g id="g194">
        <g id="g196" clip-path="url(#clipPath188)">
          <path id="path198" style="fill:#000000;fill-opacity:.5" d="m17 79h36v11h-36v-11z" inkscape:connector-curvature="0"/>
        </g>
      </g>
    </mask>
    <clipPath id="clipPath204">
      <path id="path206" d="m17 79h36v11h-36v-11z" inkscape:connector-curvature="0"/>
    </clipPath>
    <clipPath id="clipPath208">
      <path id="path210" d="m17 79h36v11h-36v-11z" inkscape:connector-curvature="0"/>
    </clipPath>
    <clipPath id="clipPath232">
      <path id="path234" d="m21 75h30v12h-30v-12z" inkscape:connector-curvature="0"/>
    </clipPath>
    <mask id="mask236">
      <g id="g238">
        <g id="g240" clip-path="url(#clipPath232)">
          <path id="path242" style="fill:#000000;fill-opacity:.5" d="m21 75h30v12h-30v-12z" inkscape:connector-curvature="0"/>
        </g>
      </g>
    </mask>
    <clipPath id="clipPath248">
      <path id="path250" d="m21 75h30v12h-30v-12z" inkscape:connector-curvature="0"/>
    </clipPath>
    <clipPath id="clipPath252">
      <path id="path254" d="m21 75h30v12h-30v-12z" inkscape:connector-curvature="0"/>
    </clipPath>
    <clipPath id="clipPath288">
      <path id="path290" d="m39 50h33v43h-33v-43z" inkscape:connector-curvature="0"/>
    </clipPath>
    <mask id="mask292">
      <g id="g294">
        <g id="g296" clip-path="url(#clipPath288)">
          <path id="path298" style="fill:#000000;fill-opacity:.5" d="m39 50h33v43h-33v-43z" inkscape:connector-curvature="0"/>
        </g>
      </g>
    </mask>
    <clipPath id="clipPath304">
      <path id="path306" d="m39 50h33v43h-33v-43z" inkscape:connector-curvature="0"/>
    </clipPath>
    <clipPath id="clipPath308">
      <path id="path310" d="m39 50h33v43h-33v-43z" inkscape:connector-curvature="0"/>
    </clipPath>
    <clipPath id="clipPath334">
      <path id="path336" d="m38 54h33v34h-33v-34z" inkscape:connector-curvature="0"/>
    </clipPath>
    <mask id="mask338">
      <g id="g340">
        <g id="g342" clip-path="url(#clipPath334)">
          <path id="path344" style="fill:#000000;fill-opacity:.5" d="m38 54h33v34h-33v-34z" inkscape:connector-curvature="0"/>
        </g>
      </g>
    </mask>
    <clipPath id="clipPath350">
      <path id="path352" d="m38 54h33v34h-33v-34z" inkscape:connector-curvature="0"/>
    </clipPath>
    <clipPath id="clipPath354">
      <path id="path356" d="m38 54h33v34h-33v-34z" inkscape:connector-curvature="0"/>
    </clipPath>
    <clipPath id="clipPath388">
      <path id="path390" d="m42 50h31v43h-31v-43z" inkscape:connector-curvature="0"/>
    </clipPath>
    <mask id="mask392">
      <g id="g394">
        <g id="g396" clip-path="url(#clipPath388)">
          <path id="path398" style="fill:#000000;fill-opacity:.21090" d="m42 50h31v43h-31v-43z" inkscape:connector-curvature="0"/>
        </g>
      </g>
    </mask>
    <clipPath id="clipPath404">
      <path id="path406" d="m42 50h31v43h-31v-43z" inkscape:connector-curvature="0"/>
    </clipPath>
    <clipPath id="clipPath408">
      <path id="path410" d="m42 50h31v43h-31v-43z" inkscape:connector-curvature="0"/>
    </clipPath>
    <clipPath id="clipPath460">
      <path id="path462" d="m63 68h32v19h-32v-19z" inkscape:connector-curvature="0"/>
    </clipPath>
    <mask id="mask464">
      <g id="g466">
        <g id="g468" clip-path="url(#clipPath460)">
          <path id="path470" style="fill:#000000;fill-opacity:.5" d="m63 68h32v19h-32v-19z" inkscape:connector-curvature="0"/>
        </g>
      </g>
    </mask>
    <clipPath id="clipPath476">
      <path id="path478" d="m63 68h32v19h-32v-19z" inkscape:connector-curvature="0"/>
    </clipPath>
    <clipPath id="clipPath480">
      <path id="path482" d="m63 68h32v19h-32v-19z" inkscape:connector-curvature="0"/>
    </clipPath>
    <clipPath id="clipPath514">
      <path id="path516" d="m62 76h33v10h-33v-10z" inkscape:connector-curvature="0"/>
    </clipPath>
    <mask id="mask518">
      <g id="g520">
        <g id="g522" clip-path="url(#clipPath514)">
          <path id="path524" style="fill:#000000;fill-opacity:.5" d="m62 76h33v10h-33v-10z" inkscape:connector-curvature="0"/>
        </g>
      </g>
    </mask>
    <clipPath id="clipPath530">
      <path id="path532" d="m62 76h33v10h-33v-10z" inkscape:connector-curvature="0"/>
    </clipPath>
    <clipPath id="clipPath534">
      <path id="path536" d="m62 76h33v10h-33v-10z" inkscape:connector-curvature="0"/>
    </clipPath>
    <clipPath id="clipPath558">
      <path id="path560" d="m62 69h33v15h-33v-15z" inkscape:connector-curvature="0"/>
    </clipPath>
    <mask id="mask562">
      <g id="g564">
        <g id="g566" clip-path="url(#clipPath558)">
          <path id="path568" style="fill:#000000;fill-opacity:.5" d="m62 69h33v15h-33v-15z" inkscape:connector-curvature="0"/>
        </g>
      </g>
    </mask>
    <clipPath id="clipPath574">
      <path id="path576" d="m62 69h33v15h-33v-15z" inkscape:connector-curvature="0"/>
    </clipPath>
    <clipPath id="clipPath578">
      <path id="path580" d="m62 69h33v15h-33v-15z" inkscape:connector-curvature="0"/>
    </clipPath>
    <clipPath id="clipPath602">
      <path id="path604" d="m62 82h35v5h-35v-5z" inkscape:connector-curvature="0"/>
    </clipPath>
    <mask id="mask606">
      <g id="g608">
        <g id="g610" clip-path="url(#clipPath602)">
          <path id="path612" style="fill:#000000;fill-opacity:.5" d="m62 82h35v5h-35v-5z" inkscape:connector-curvature="0"/>
        </g>
      </g>
    </mask>
    <clipPath id="clipPath618">
      <path id="path620" d="m62 82h35v5h-35v-5z" inkscape:connector-curvature="0"/>
    </clipPath>
    <clipPath id="clipPath622">
      <path id="path624" d="m62 82h35v5h-35v-5z" inkscape:connector-curvature="0"/>
    </clipPath>
  </defs>
  <g id="g10" transform="matrix(1.25,0,0,-1.25,0,185)">
    <g id="g12">
      <g id="g14">
        <g id="g16" clip-path="url(#clipPath18)">
          <g id="g22" transform="matrix(.8 0 0 -.24728 51.76 9.3599)">
            <g id="g44" mask="url(#mask36)">
              <path id="path52" style="fill-rule:evenodd;fill:url(#radialGradient46)" d="m29.398 15.961c6.161 1.812 13.602 2.719 22.321 2.719 8.722 0 16.176-0.907 22.363-2.719 6.16-1.813 9.238-4.016 9.238-6.602s-3.078-4.785-9.238-6.597c-6.187-1.84-13.641-2.762-22.363-2.762-8.719 0-16.16 0.922-22.321 2.762-6.156 1.812-9.238 4.011-9.238 6.597s3.082 4.789 9.238 6.602z" inkscape:connector-curvature="0"/>
            </g>
          </g>
        </g>
      </g>
      <g id="g54">
        <g id="g70" mask="url(#mask62)">
          <g id="g82">
            <g id="g84" clip-path="url(#clipPath74)">
              <g id="g86">
                <g id="g90">
                  <g id="g92" clip-path="url(#clipPath78)">
                    <g id="g94">
                      <path id="path96" style="fill-rule:evenodd;fill:#000000" d="m46.039 10.52c0.293 0.402 0.723 0.773 1.281 1.121 1.145 0.668 2.426 0.879 3.84 0.64 2.293-0.402 4.082-0.883 5.36-1.441 1.761-0.719 2.066-1.414 0.921-2.078-1.707-0.989-3.562-1.668-5.562-2.043l-5.84 3.801z" inkscape:connector-curvature="0"/>
                    </g>
                  </g>
                </g>
              </g>
            </g>
          </g>
        </g>
      </g>
      <path id="path98" style="fill-rule:evenodd;fill:#8f591a" d="m54.199 76.922 0.68 0.519c0.562 0.266 1.066 0.278 1.519 0.039 1.442-0.8 2.067-4.132 1.883-10-0.293-9.414-1.656-29.375-4.082-59.878l-2.32-0.883-3.84 4.601 6.16 65.602z" inkscape:connector-curvature="0"/>
      <path id="path100" style="fill-rule:evenodd;fill:#b87932" d="m55.52 114.16 3.839-1.558c-1.437-22.452-2.371-37.721-2.8-45.799-0.426-8.082-1.985-28.106-4.68-60.082l-1.719 0.883c-0.719 0.371-1.933 0.851-3.64 1.437l-2.321 0.762c0.746 2.293 1.602 6.465 2.563 12.519 0.824 5.414 1.906 13.707 3.238 24.879 1.387 11.867 2.359 19.723 2.922 23.563 0.824 5.492 1.504 14.371 2.039 26.636 0.266 6.137 0.453 11.723 0.559 16.762z" inkscape:connector-curvature="0"/>
      <path id="path102" style="fill-rule:evenodd;fill:#a1692b" d="m52.559 19.719c-1.493-3.731-2.559-4.797-3.2-3.199-0.586 1.496-0.625 3.226-0.121 5.199 0.16 0.64 0.735 1.988 1.723 4.043 1.305 2.636 2.305 4.679 3 6.117l-0.242-3.117c-2.664-2.586-3.852-5.817-3.559-9.68 0.106-1.227 0.52-1.187 1.238 0.117 0.348 0.641 0.961 2.043 1.84 4.199l-0.156-2.437-0.523-1.242z" inkscape:connector-curvature="0"/>
      <path id="path104" style="fill-rule:evenodd;fill:#a1692b" d="m52.68 16.48-0.282-3.601c-1.117-1.57-1.972-3.277-2.558-5.117h-0.078c0.636 4.023 1.359 6.547 2.16 7.558l0.758 1.16z" inkscape:connector-curvature="0"/>
      <path id="path106" style="fill-rule:evenodd;fill:#a1692b" d="m50.559 52c1.601 0 3.253-0.121 4.961-0.359l-1.079-13.641-0.121-0.801c-0.347-2.238-1.238-5-2.679-8.277-1.653-3.734-2.719-6.574-3.2-8.524-0.855-3.464-1.054-7.41-0.601-11.839l-0.918 0.32c-0.988 5.336-0.254 10.641 2.199 15.922 0.934 2 1.813 4.199 2.641 6.597 0.957 2.801 1.492 4.868 1.597 6.204 0.106 1.226-0.011 3.21-0.359 5.957l-0.559 3.761 0.039-3.879c-0.054-3.066-0.332-5.855-0.839-8.359-0.348-1.762-1.161-4.254-2.442-7.48-1.519-3.79-2.453-6.282-2.801-7.481l1.442 9.719c0.293 0.558 0.492 0.922 0.601 1.082 2.266 3.57 3.332 7.172 3.2 10.797l-0.121 6.281-1.079-10c-0.214-1.867-0.961-3.719-2.242-5.559l0.199 1.68 0.442 0.68c1.308 2.054 1.629 5.597 0.961 10.64l0.758 6.559z" inkscape:connector-curvature="0"/>
      <path id="path108" style="fill-rule:evenodd;fill:#a1692b" d="m44.52 10.961c0.292 1.066 0.652 2.664 1.082 4.801-0.11-1.817-0.137-3.95-0.082-6.403l-0.879 0.282-0.121 1.32z" inkscape:connector-curvature="0"/>
      <path id="path110" style="fill-rule:evenodd;fill:#8f591a" d="m55.32 44.961-0.359-1.52c-0.43-1.226-1.149-2.359-2.16-3.402-0.989-1.039-1.946-1.746-2.879-2.117l-1.121-0.281 1 7.519 2 0.801 3.801 2.078-0.282-3.078z" inkscape:connector-curvature="0"/>
      <path id="path112" style="fill-rule:evenodd;fill:#593918" d="m64.559 80.68c0.668-3.492 2.187-7.504 4.562-12.039 1.227-2.375 3-5.399 5.32-9.082 0.879-1.411 1.985-2.653 3.321-3.719 0.691-0.535 1.277-0.918 1.758-1.16l-4.481-1.2c-3.652 6.586-6.387 12.028-8.199 16.321-1.121 2.691-1.84 5.32-2.16 7.879l-0.121 3z" inkscape:connector-curvature="0"/>
      <path id="path114" style="fill-rule:evenodd;fill:#6e461e" d="m64.16 80.398c0.961-3.945 2.586-8.21 4.879-12.796 1.84-3.657 3.508-6.426 5-8.321 1.52-1.949 2.723-3.519 3.602-4.722l-3-1.36c-3.653 6.586-6.387 12.043-8.2 16.36-1.121 2.695-1.839 5.308-2.16 7.839l-0.121 3z" inkscape:connector-curvature="0"/>
      <path id="path116" style="fill-rule:evenodd;fill:#deb550" d="m13.801 79.121c-1.336-0.855-2.336-1.945-3-3.281-0.668-1.332-0.856-3.442-0.559-6.32 0.156-1.438 0.371-2.747 0.637-3.918-0.531 0.613-1.094 1.371-1.68 2.277-1.172 1.816-1.851 3.469-2.039 4.961-0.187 1.519-0.133 3.082 0.16 4.68l0.481 1.96-1.719-1.718c-1.227-1.414-1.977-2.828-2.242-4.242-0.266-1.415-0.293-2.973-0.078-4.68 0.105-0.879 0.238-1.598 0.398-2.16-0.398 0.828-0.762 1.851-1.078 3.082-0.668 2.453-0.801 4.691-0.402 6.718 0.402 2.028 1.562 4.04 3.48 6.04l2.719 2.441c-0.852-0.082-1.758-0.242-2.719-0.481-1.945-0.535-3.215-1.253-3.801-2.16 0.403 1.012 1.227 2.012 2.481 3 2.453 1.973 5.746 2.856 9.879 2.641 4.429-0.242 7.601-1.586 9.523-4.039 1.598-2.055 1.918-3.867 0.957-5.442-0.504-0.828-1.437-2.121-2.801-3.878-1.089-1.68-1.543-3.321-1.359-4.922 0.16-1.625 0.906-3.215 2.242-4.758 0.664-0.774 1.305-1.387 1.918-1.84-0.773 0.477-1.625 1.066-2.558 1.758-1.84 1.441-3.094 2.762-3.762 3.961-0.664 1.172-1.133 2.121-1.399 2.84l-0.199 0.679-0.761-1.601c-0.504-1.25-0.708-2.371-0.598-3.36l0.199-2.437c-0.348 0.637-0.707 1.453-1.082 2.437-0.719 1.95-1.105 3.746-1.16 5.403-0.051 1.652 0.215 3.359 0.801 5.117l0.922 2.121-1.801-0.879z" inkscape:connector-curvature="0"/>
      <path id="path118" style="fill-rule:evenodd;fill:#8f591a" d="m12.16 80.242 0.762 1.637c14.16 1.547 21.41 2.215 21.758 2 0.347-0.211-0.215-0.68-1.68-1.399-1.602-0.8-3.32-1.292-5.16-1.48-2.692-0.293-7.52-0.773-14.481-1.441l-1.199 0.683z" inkscape:connector-curvature="0"/>
      <path id="path120" style="fill-rule:evenodd;fill:#b87932" d="m11.961 86.719c4.293-0.024 8.773-0.024 13.437 0 9.364 0.027 15.016 0.109 16.961 0.242l0.762-2.563c-7.973-1.597-14.48-2.625-19.519-3.078-5.067-0.425-8.883-0.785-11.442-1.078l-0.199 6.477z" inkscape:connector-curvature="0"/>
      <path id="path122" style="fill-rule:evenodd;fill:#8f591a" d="m13.199 82.121-1.078 0.039-0.082 2.719 7.481-0.117 0.16-3.442c0-0.105-0.785-0.425-2.36-0.961-0.453 0.508-1.121 0.95-2 1.321-0.558 0.242-1.265 0.386-2.121 0.441z" inkscape:connector-curvature="0"/>
      <path id="path124" style="fill-rule:evenodd;fill:#ffd466" d="m15.398 82.641c-2.636 0.535-4.851 0.613-6.636 0.238-1.789-0.371-3.762-1.84-5.922-4.399-1.094-1.304-2-2.558-2.719-3.761 0 0.375 0.133 0.961 0.399 1.761 0.562 1.547 1.535 3.305 2.921 5.282 1.36 1.972 3.161 3.531 5.399 4.679l2.922 1.079-2.242 0.199c-1.493 0.16-2.774 0.054-3.84-0.321 0.453 0.375 1.121 0.735 2 1.082 1.812 0.747 3.879 1.122 6.199 1.122s4.641-0.414 6.961-1.243c1.148-0.398 2.066-0.8 2.762-1.199l3-1c2-0.906 3.066-1.933 3.199-3.078 0.16-1.254-0.36-2.684-1.559-4.281-1.066-1.387-2.269-2.481-3.601-3.281-0.961-0.614-1.375-1.665-1.243-3.161 0.082-0.746 0.254-1.425 0.524-2.039-0.27 0.375-0.524 0.828-0.762 1.36-0.48 1.093-0.652 2.082-0.519 2.961 0.132 0.933 0.679 1.757 1.64 2.48 0.438 0.348 0.867 0.609 1.278 0.777-0.832-0.16-1.672-0.339-2.52-0.539-1.625-0.371-2.957-1.32-4-2.839-0.957-1.438-1.437-3.051-1.437-4.84 0-1.438 0.238-2.692 0.718-3.758 0.059-0.16 0.121-0.305 0.18-0.442l-1.418 2.2c-0.801 1.226-1.309 3.066-1.523 5.519l-0.079 3.281-1.398-1.64c-0.562-0.692-0.855-2.215-0.883-4.559 0-1.199 0.055-2.32 0.16-3.359-0.371 0.773-0.691 1.719-0.961 2.84-0.531 2.238-0.531 4.183 0 5.84 0.536 1.652 1.762 3.171 3.684 4.558l2.719 1.602c-0.961 0.32-2.094 0.613-3.403 0.879z" inkscape:connector-curvature="0"/>
      <path id="path126" style="fill-rule:evenodd;fill:#deb550" d="m13.801 88.082c1.734 0.16 3.597-0.215 5.597-1.121 2.11-0.961 3.215-1.84 3.321-2.641 0.082-0.425-0.25-1.011-1-1.761-0.453-0.454-1.024-0.774-1.719-0.957-0.559-0.161-1.094-0.215-1.602-0.161-1.039 0.532-2.171 0.957-3.398 1.278-2.375 0.59-4.801 0.429-7.281-0.477-2.106-0.773-4.024-2.347-5.758-4.722-0.856-1.2-1.508-2.321-1.961-3.36 0.375 1.121 0.973 2.348 1.801 3.68 1.652 2.695 3.625 4.629 5.918 5.801 2.297 1.171 4.922 1.851 7.883 2.039 1.492 0.105 2.757 0.093 3.796-0.039-1.066 0.8-2.359 1.375-3.878 1.718-0.961 0.188-1.879 0.266-2.758 0.243l-1-0.082 2.039 0.562z" inkscape:connector-curvature="0"/>
      <path id="path128" style="fill-rule:evenodd;fill:#ffed91" d="m12.16 74.922c0.106 0.984 0.719 2.133 1.84 3.437l1.602 1.641c1.812 1.148 2.984 1.465 3.519 0.961 0.266-0.242 0.348-0.602 0.238-1.082l-0.839-0.957c-0.665-0.906-1.227-1.977-1.68-3.203-0.453-1.227-0.613-2.813-0.481-4.758 0.082-0.988 0.2-1.84 0.36-2.563-0.293 0.43-0.571 1-0.84 1.723-0.504 1.438-0.68 2.906-0.52 4.399 0.161 1.496 0.547 2.656 1.161 3.48l0.839 0.801-0.918-0.321c-0.8-0.425-1.64-1.16-2.519-2.199-0.906-1.066-1.43-2.679-1.563-4.84-0.047-0.957-0.031-1.824 0.039-2.601-0.312 2.519-0.39 4.547-0.238 6.082z" inkscape:connector-curvature="0"/>
      <path id="path130" style="fill-rule:evenodd;fill:#e8402a" d="m17.281 81.121c-0.265 2.106 0.051 4.172 0.961 6.199l1.399 2.399c6.265-0.746 11.812-1.184 16.64-1.321 5.813-0.183 10.653 0.028 14.52 0.641 1.199 0.188 1.519-0.144 0.961-1-0.215-0.344-0.961-1.184-2.242-2.519-0.719-0.747-1.52-1.344-2.399-1.801-0.746-0.371-2.359-1.024-4.84-1.957-1.414-0.535-3.066-1.094-4.961-1.68-1.707-0.508-3.465-1.121-5.281-1.84-2.16-0.828-3.773-1.695-4.84-2.601-0.531-0.453-0.851-0.829-0.957-1.121-1.387 0.242-2.801 0.707-4.242 1.402-2.879 1.359-4.453 3.094-4.719 5.199z" inkscape:connector-curvature="0"/>
      <g id="g132">
        <g id="g148" mask="url(#mask140)">
          <g id="g160">
            <g id="g162" clip-path="url(#clipPath152)">
              <g id="g164">
                <g id="g168">
                  <g id="g170" clip-path="url(#clipPath156)">
                    <g id="g172">
                      <path id="path174" style="fill-rule:evenodd;fill:#5d8039" d="m34.801 79.281-1.879-0.679c-2.668 0.636-4.254 1.945-4.762 3.918-0.48 2.054-0.199 4.148 0.84 6.281l2.082-0.16c-0.535-0.829-0.883-1.786-1.043-2.879-0.184-1.121-0.094-2.11 0.281-2.961 0.508-1.199 2-2.375 4.481-3.52z" inkscape:connector-curvature="0"/>
                      <path id="path176" style="fill-rule:evenodd;fill:#5d8039" d="m35.441 88.398 2.118-0.039c-0.985-1.093-1.133-2.414-0.438-3.961 0.559-1.332 1.547-2.464 2.961-3.398l-1.641-0.559c-1.253 0.532-2.148 1.414-2.679 2.641-0.856 2.023-0.961 3.797-0.321 5.316z" inkscape:connector-curvature="0"/>
                      <path id="path178" style="fill-rule:evenodd;fill:#5d8039" d="m28.719 76.719c-0.664-0.453-1.067-0.731-1.199-0.84-1.415 0.297-2.708 0.734-3.879 1.32-1.868 0.961-2.934 2.121-3.2 3.481-0.265 1.254-0.242 2.707 0.079 4.359 0.32 1.707 0.855 3.176 1.601 4.402l2.559-0.281c-0.641-0.879-1.078-1.918-1.321-3.121-0.293-1.359-0.293-2.746 0-4.16 0.508-2.344 2.293-4.067 5.36-5.16z" inkscape:connector-curvature="0"/>
                      <path id="path180" style="fill-rule:evenodd;fill:#5d8039" d="m47.242 88.602c-0.64-1.977-0.574-3.536 0.199-4.68l-0.359-0.203-0.523 0.562c-1.09 1.227-1.293 2.641-0.598 4.239l1.281 0.082z" inkscape:connector-curvature="0"/>
                      <path id="path182" style="fill-rule:evenodd;fill:#5d8039" d="m45.16 82.879-1.199-0.481c-1.68 0.696-2.586 1.629-2.719 2.801-0.137 1.199 0.199 2.254 1 3.16h1.16c-1.066-1.011-1.347-2.027-0.843-3.039 0.402-0.746 1.269-1.558 2.601-2.441z" inkscape:connector-curvature="0"/>
                    </g>
                  </g>
                </g>
              </g>
            </g>
          </g>
        </g>
      </g>
      <g id="g184">
        <g id="g200" mask="url(#mask192)">
          <g id="g212">
            <g id="g214" clip-path="url(#clipPath204)">
              <g id="g216">
                <g id="g220">
                  <g id="g222" clip-path="url(#clipPath208)">
                    <g id="g224">
                      <path id="path226" style="fill-rule:evenodd;fill:#5d8039" d="m52 88.441c-0.133-0.375-0.613-1-1.441-1.882-3.598-1.09-6.079-1.813-7.438-2.157-4.293-1.121-10.293-2.187-18-3.203-2.187-0.265-4.668-0.746-7.441-1.437-0.188 0.398-0.321 0.851-0.399 1.359l-0.082 0.879c4.906 0.746 10.746 1.508 17.52 2.281 3.949 0.426 7.683 1.16 11.203 2.199 1.758 0.508 3.133 0.973 4.117 1.399-2.398-0.531-5.105-1.024-8.117-1.477-5.016-0.695-10.746-0.789-17.203-0.281-2.051 0.188-4.278 0.438-6.68 0.758 0.348 0.773 0.656 1.375 0.922 1.801 1.441-0.293 4.492-0.575 9.16-0.84 2.586-0.16 6.254-0.332 11-0.52 3.199-0.132 6.652 0.375 10.359 1.52l1.321 0.199c0.984 0.16 1.387-0.039 1.199-0.598z" inkscape:connector-curvature="0"/>
                    </g>
                  </g>
                </g>
              </g>
            </g>
          </g>
        </g>
      </g>
      <g id="g228">
        <g id="g244" mask="url(#mask236)">
          <g id="g256">
            <g id="g258" clip-path="url(#clipPath248)">
              <g id="g260">
                <g id="g264">
                  <g id="g266" clip-path="url(#clipPath252)">
                    <g id="g268">
                      <path id="path270" style="fill-rule:evenodd;fill:#5d8039" d="m50.52 86.52-1.321-1.321c-2.426-1.094-5.824-2.347-10.199-3.758-4.691-1.496-7.852-2.507-9.48-3.043-2-0.664-3.934-1.73-5.801-3.199-1.039 0.375-1.879 0.746-2.52 1.121 4.055 2.426 8.906 4.282 14.563 5.559 5.254 1.203 10.172 2.746 14.758 4.641z" inkscape:connector-curvature="0"/>
                    </g>
                  </g>
                </g>
              </g>
            </g>
          </g>
        </g>
      </g>
      <path id="path272" style="fill-rule:evenodd;fill:#ffed91" d="m11.242 87.48c1.41 0.075 2.973-0.199 4.68-0.82-0.465 0.141-1.067 0.199-1.801 0.18-1.894-0.028-3.961-0.664-6.199-1.918-2.508-1.387-4.547-3.43-6.121-6.121-0.692-1.153-1.192-2.207-1.5-3.16 0.558 1.875 1.273 3.554 2.14 5.039 0.934 1.574 2.348 3.082 4.239 4.519 1.867 1.442 3.386 2.199 4.562 2.281z" inkscape:connector-curvature="0"/>
      <path id="path274" style="fill-rule:evenodd;fill:#b39140" d="m53.359 53.602c0.508-0.055 3.426-0.149 8.762-0.282 5.465-0.425 9.078-1.359 10.84-2.8 1.785-1.438 3.387-2.293 4.801-2.559 0.261-0.051 0.5-0.074 0.718-0.082l-1.921-0.277c-1.172-0.161-1.985-0.188-2.438-0.082l-0.359 0.199 0.32-0.598c0.211-0.586 0.371-1.359 0.477-2.32 0.109-0.934 0.972-2 2.601-3.199 0.801-0.586 1.586-1.082 2.36-1.481l-3.079 1.078c-1.281 0.453-2.453 1.336-3.519 2.641l-1.203 1.801-0.039-1.442c0-1.172 0.082-2.344 0.242-3.519 0.16-1.172 0.652-2.215 1.476-3.121 0.403-0.477 0.79-0.825 1.161-1.039l-2.637 1.199c-1.121 0.508-2.254 1.816-3.402 3.922l-1.399 3.039 0.121-3.758c0.078-2.481-0.148-4.297-0.683-5.442 0.187 0.426 0.187 1.305 0 2.641-0.106 0.824-0.852 1.945-2.239 3.359l-2 1.84-0.121-1.32c-0.023-1.094 0.094-2.16 0.36-3.199 0.242-0.86 0.468-1.469 0.683-1.821l0.399-0.3c-0.055-0.078-0.149-0.039-0.282 0.121-0.039 0.051-0.082 0.109-0.117 0.179l-1.203 0.899c-0.664 0.508-1.332 1.16-2 1.961l-0.797 1.082-0.16-0.84c-0.109-0.75-0.203-1.629-0.281-2.641-0.055-1.015 0.199-1.933 0.758-2.761 0.296-0.426 0.589-0.746 0.882-0.961-1.066 0.457-2.359 1.523-3.882 3.203-0.985 1.117-1.825 2.637-2.52 4.558-0.531 1.52-0.797 2.668-0.797 3.442 0 0.426-0.453 0.094-1.363-1-2.32-2.828-3.504-4.27-3.559-4.32-1.226-1.387-2.535-2.387-3.922-3l-1.679-0.481c0.695 0.453 1.574 1.574 2.64 3.359 0.668 1.094 1.403 3.161 2.2 6.2l1 4.199-1.36-1.758c-1.226-1.441-2.679-2.855-4.359-4.242-1.652-1.414-3.145-2.172-4.481-2.277l-1.519 0.277c0.719 0.348 1.48 0.828 2.281 1.441 0.824 0.668 1.746 1.84 2.758 3.52 1.254 2.082 1.867 3.879 1.84 5.402l4.281 0.719c2.988 0.48 4.773 0.691 5.359 0.641z" inkscape:connector-curvature="0"/>
      <path id="path276" style="fill-rule:evenodd;fill:#deb550" d="m36.121 49.16c1.121 1.039 2.332 2.68 3.641 4.922l1.636 3.078c0.243 0.028 0.547 0.133 0.922 0.32 0.746 0.399 1.481 0.985 2.2 1.762l10.441-0.601c7.414-0.829 12.199-2.348 14.359-4.559 1.946-2 3.895-3.496 5.84-4.48 0.988-0.481 1.774-0.762 2.36-0.84l0.039-0.082c-0.797-0.133-2.106 0.039-3.918 0.519-0.696 0.188-1.348 0.426-1.961 0.723l-0.719 0.359 0.758-1.281c0.64-0.906 1.281-1.547 1.922-1.918 1.441-0.883 2.984-1.32 4.64-1.32 0.824 0 1.504 0.093 2.039 0.277-0.535-0.453-1.867-0.879-4-1.277-1.332-0.242-2.187-0.27-2.558-0.082l-0.16 0.359 0.398-1.277c0.266-0.883 0.105-1.989-0.48-3.321l-0.2 1.52c-0.078 0.613-0.375 1.531-0.879 2.758l-0.722 1.64v-0.718l-0.719-3.879c-0.293-1.629-0.984-2.934-2.078-3.922-0.563-0.508-1.094-0.84-1.602-1 0.375 0.375 0.707 0.867 1 1.48 0.614 1.254 0.746 2.535 0.399 3.84-0.321 1.281-0.864 2.735-1.637 4.36l-1.082 2.039-1.281-1.598c-0.852-1.359-1.25-2.734-1.199-4.121 0.027-1.36 0.386-2.613 1.082-3.758 0.343-0.59 0.679-1.027 1-1.32l-2.481 1.597c-1.039 0.668-2.094 1.817-3.16 3.442l-1.242 2.238 0.082-3.797c0.054-1.281 0.441-2.574 1.16-3.883 0.348-0.664 0.691-1.199 1.039-1.597l-2.199 1.679c-0.906 0.719-1.735 2.493-2.481 5.321l-0.8 4-0.719-0.481c-0.613-0.613-1.281-1.695-2-3.242-0.696-1.547-1.906-2.758-3.641-3.641-0.851-0.425-1.64-0.703-2.359-0.839 0.613 0.453 1.078 1.281 1.398 2.48 0.215 0.75 0.293 1.496 0.242 2.242l-0.121 0.879-1-2c-0.668-1.332-1.867-2.668-3.601-4 0.668 0.934 1.297 2.16 1.883 3.68 0.371 0.961 0.812 2.48 1.32 4.558l0.598 2.844-2.2-2.683c-0.906-1.145-2.132-2.161-3.679-3.039-0.774-0.426-1.453-0.747-2.039-0.961l1.398 2c0.586 0.828 1.215 2.363 1.879 4.601l0.84 3.082-1.36-1c-1.254-0.883-2.664-1.844-4.238-2.883s-3.066-1.679-4.48-1.918h-1.641c0.934 0.133 2.309 1.039 4.121 2.719z" inkscape:connector-curvature="0"/>
      <path id="path278" style="fill-rule:evenodd;fill:#ffd466" d="m63.879 51.879-0.16 5.082-0.52-6.602c-0.187-2.746-1.105-5.652-2.758-8.718-0.816-1.524-1.613-2.778-2.402-3.762 0.602 0.781 1.188 2.676 1.762 5.68 0.375 1.921 0.547 3.617 0.519 5.082l-0.199 1.601-0.801 2.918c-0.48 1.707-1.093 2.465-1.84 2.281-0.933-0.214-1.761-1.839-2.48-4.882-0.668-2.797-1.613-5.399-2.84-7.797-0.613-1.176-1.16-2.082-1.64-2.723l0.48 2.723c0.215 1.117 0.215 2.558 0 4.32l-0.398 2.277-0.801-1.199c-0.774-1.172-1.801-2.613-3.082-4.32-1.305-1.707-2.879-3.188-4.719-4.442-0.934-0.613-1.734-1.066-2.398-1.359 1.144 1.336 2.519 3.203 4.117 5.602 1.015 1.492 1.601 2.828 1.761 4l-0.082 1.32-1.156-1.242c-1.066-0.985-2.375-1.907-3.922-2.758-1.547-0.879-2.84-1.43-3.879-1.641l-1.121-0.078c0.559 0.317 1.254 0.84 2.078 1.559 1.602 1.387 3 3 4.204 4.84 1.226 1.839 1.984 3.652 2.277 5.441l0.121 2.16-2.121-1.844c-1.598-1.359-2.918-2.41-3.957-3.156-1.043-0.75-2.188-1.32-3.442-1.722l-1.558-0.36 4.277 3.399c1.176 0.882 2.387 2.226 3.641 4.043 0.215 0.293 1.105 1.679 2.68 4.16l11.878-1.723c8.11-1.492 12.618-3.117 13.524-4.879s2.531-2.719 4.879-2.879c1.144-0.082 2.215 0.012 3.199 0.278-0.266-0.399-1.227-0.84-2.879-1.317-1.039-0.297-1.828-0.375-2.359-0.242l-0.442 0.242 0.2-0.683c0.265-0.747 0.734-1.852 1.402-3.317 0.664-1.441 2.051-2.64 4.16-3.601 1.039-0.481 2.012-0.813 2.918-1-0.266-0.082-0.746-0.106-1.441-0.082-1.383 0.082-3.133 0.414-5.239 1-2.132 0.589-3.695 1.933-4.679 4.043l-0.84 2.957-0.321-0.719c-0.214-0.719-0.332-1.746-0.359-3.078-0.055-1.336 0.266-3.043 0.961-5.121 0.344-1.016 0.691-1.907 1.039-2.68-0.242 0.055-0.562 0.281-0.961 0.68-0.828 0.8-1.68 2.105-2.558 3.918-0.856 1.789-1.426 4.562-1.723 8.32z" inkscape:connector-curvature="0"/>
      <path id="path280" style="fill-rule:evenodd;fill:#deb550" d="m53.719 49.84c0.242 1.547 0.269 3.094 0.082 4.64l-0.403 1.879-2.277-6.597c-0.668-1.84-2.293-4.043-4.879-6.602-1.308-1.305-2.547-2.414-3.722-3.32 0.746 0.746 1.535 1.64 2.359 2.68 1.652 2.105 2.734 3.878 3.242 5.32 0.504 1.469 0.559 2.734 0.16 3.801l-0.761 1.199-1.52-3c-0.613-1.254-2.012-2.559-4.199-3.918-1.094-0.695-2.121-1.254-3.082-1.68 0.961 0.692 1.949 1.52 2.961 2.477 2 1.922 3.082 3.535 3.242 4.84 0.16 1.281 0.012 2.175-0.442 2.683l-0.761 0.399 0.281 1.519c0.746 0.266 1.188 0.602 1.32 1 0.239 0.719 0.239 1.149 0 1.281-0.375 0.211-1.347-0.652-2.922-2.601-1.519-1.918-3.558-3.442-6.117-4.559l-3.222-1.082c0.601 0.223 1.625 0.742 3.062 1.563 1.172 0.636 2.387 1.679 3.641 3.117 1.332 1.469 2.386 2.988 3.16 4.562l11.84-1.043c8.16-1.011 12.906-2.265 14.238-3.757 1.332-1.493 3.066-2.293 5.199-2.399 0.653-0.035 1.254-0.008 1.801 0.078-0.711-0.152-1.469-0.269-2.281-0.359-0.746-0.082-1.387-0.188-1.918-0.32l-0.602-0.2 0.321-0.679 1-3c-0.266 0.531-0.934 1.359-2 2.48-0.665 0.719-1.321 0.985-1.961 0.797l-0.758-0.48-0.68-1.719-0.519 0.922c-0.188 0.371-0.696 0.426-1.52 0.16l-1.16-0.481c0 0.266 0.066 0.707 0.199 1.321 0.078 0.371 0.121 0.73 0.121 1.078l-0.043 0.402-0.801 1.317 0.122-1.719c0.054-1.121-0.188-1.879-0.719-2.281l-0.602 0.082-2.078 0.601c-0.082 0.266-0.414 0.973-1 2.117-0.375 0.696-0.32 1.215 0.16 1.563l0.84 0.32c-0.586 0.957-1.226 1.613-1.922 1.957-1.359 0.723-2.254-0.398-2.679-3.359-0.426-2.961-1.278-5.879-2.559-8.758-0.668-1.441-1.281-2.59-1.84-3.441 1.332 3.679 2.199 6.746 2.598 9.199z" inkscape:connector-curvature="0"/>
      <path id="path282" style="fill-rule:evenodd;fill:#ff462e" d="m64.84 83.52c1.199-3.415 1.922-6.801 2.16-10.161 0.133-1.839 0.254-3.961 0.359-6.359 0.106-1.84 0.321-3.492 0.641-4.961 0.242-1.117 1.066-2.746 2.48-4.879 0.719-1.066 1.399-2.027 2.04-2.879l-2.161-1.48c-1.894-1.039-3.972-1.719-6.238-2.039-4.668-0.696-10.066 0.304-16.199 3-2.027 0.851-4.563 1.492-7.602 1.918l-3.922 0.359c1.176 0.934 2.243 2.27 3.204 4 0.023 0.055 0.492 0.535 1.398 1.441 0.746 0.747 1.32 1.708 1.719 2.879 0.508 1.469 1.082 4 1.722 7.602 0.664 3.812 1.227 6.426 1.68 7.84 0.559 1.812 1.266 4.32 2.121 7.519l1.117 4.239c1.387 0.668 3.641 1.054 6.762 1.16 3.867 0.16 5.984-0.637 6.359-2.399 0.028-0.078 0.813-2.347 2.36-6.8z" inkscape:connector-curvature="0"/>
      <g id="g284">
        <g id="g300" mask="url(#mask292)">
          <g id="g312">
            <g id="g314" clip-path="url(#clipPath304)">
              <g id="g316">
                <g id="g320">
                  <g id="g322" clip-path="url(#clipPath308)">
                    <g id="g324">
                      <path id="path326" style="fill-rule:evenodd;fill:#5d8039" d="m58.281 92.68c2.504-0.211 3.907-1 4.199-2.36 0.161-0.668 0.493-1.734 1-3.199 0-4.266-0.039-7.574-0.121-9.922-0.023-0.906-0.211-4.414-0.558-10.519-0.293-5.227-0.414-8.735-0.36-10.52 0.028-1.625 0.371-3.453 1.039-5.48-1.148-0.133-2.253-0.16-3.32-0.078-0.215 1.757-0.265 4-0.16 6.718 0.082 2.215 0.227 4.094 0.441 5.641 0.184 1.281 0.414 4.012 0.68 8.199 0.266 4.106 0.399 6.922 0.399 8.442 0 4.238-0.227 7.425-0.68 9.558-0.215 1.067-0.438 1.707-0.68 1.922-0.265-0.027-0.535-0.121-0.801-0.281-0.531-0.293-0.8-0.774-0.8-1.442 0-0.558-0.145-2.398-0.438-5.519-0.32-3.574-0.519-6-0.601-7.281-0.504-7.223-1.133-12.25-1.879-15.079-0.536-1.945-1.2-5.214-2-9.8-1.387 0.425-2.586 0.828-3.602 1.199 0.32 0.668 0.68 1.496 1.082 2.48 0.32 0.856 0.691 2.52 1.121 5 0.371 2.188 0.746 3.586 1.117 4.2 0.453 0.722 0.789 2.203 1 4.441 0.161 2.668 0.282 4.559 0.36 5.68 0.883 9.601 1.32 15.105 1.32 16.519 0 1.149-0.598 1.36-1.797 0.641-1.226-0.719-1.867-1.867-1.922-3.438-0.105-2.297-0.425-5.707-0.961-10.242-0.238-2.215-0.746-4.984-1.519-8.32-0.692-2.934-1.332-5.281-1.918-7.039-0.668-1.813-2.137-4.375-4.402-7.68-1.575 0.32-2.973 0.547-4.2 0.68 2.188 1.867 3.762 3.586 4.719 5.16 0.723 1.148 1.375 2.625 1.961 4.441 0.535 1.68 0.906 3.266 1.121 4.758 0.078 0.586 0.465 2.481 1.16 5.68 0.586 2.719 0.907 4.64 0.961 5.762 0.078 1.945 0.653 5.371 1.719 10.277l0.879 0.32c2.426 0.481 4.574 0.641 6.441 0.481z" inkscape:connector-curvature="0"/>
                      <path id="path328" style="fill-rule:evenodd;fill:#5d8039" d="m66.16 78.68v0.402c0.426-2.027 0.707-3.934 0.84-5.723 0.133-1.89 0.254-4.078 0.359-6.558-0.05-2.934 0.043-4.934 0.282-6 0.398-1.973 1.558-4.481 3.48-7.52-0.719-0.453-1.469-0.855-2.242-1.199l-0.438 1.277c-0.027 0.055-0.562 1.348-1.601 3.883-0.692 1.68-1.094 3.317-1.199 4.918-0.106 1.414-0.028 4.266 0.238 8.559 0.242 4.32 0.336 6.976 0.281 7.961z" inkscape:connector-curvature="0"/>
                    </g>
                  </g>
                </g>
              </g>
            </g>
          </g>
        </g>
      </g>
      <g id="g330">
        <g id="g346" mask="url(#mask338)">
          <g id="g358">
            <g id="g360" clip-path="url(#clipPath350)">
              <g id="g362">
                <g id="g366">
                  <g id="g368" clip-path="url(#clipPath354)">
                    <g id="g370">
                      <path id="path372" style="fill-rule:evenodd;fill:#5d8039" d="m56.48 83.039c2.668-0.238 4.84-0.73 6.52-1.48 1.199-0.559 2.188-1.145 2.961-1.758 0.215-0.746 0.441-1.852 0.68-3.321-2.614 2.106-5.254 3.465-7.922 4.079-2.426 0.507-4.719 0.668-6.879 0.48-2.426-0.211-4.399-0.84-5.918-1.879l0.918 3.121c1.015 0.371 2.133 0.625 3.359 0.758 1.867 0.215 3.961 0.215 6.281 0z" inkscape:connector-curvature="0"/>
                      <path id="path374" style="fill-rule:evenodd;fill:#5d8039" d="m62.602 73.48c-2.028 0.801-4.082 1.293-6.161 1.481-2.242 0.187-4.507 0.144-6.8-0.121-1.922-0.238-3.547-0.574-4.879-1l0.359 1.562c3.012 1.25 5.785 1.813 8.32 1.68 3.012-0.187 5.106-0.387 6.278-0.602 1.707-0.265 3.254-0.773 4.64-1.519 0.375-0.215 0.868-0.586 1.481-1.121 0.32-0.293 0.719-0.652 1.199-1.078l0.121-2.043c-0.984 1.043-2.508 1.961-4.558 2.761z" inkscape:connector-curvature="0"/>
                      <path id="path376" style="fill-rule:evenodd;fill:#5d8039" d="m47.801 85.641c0.16 0.695 0.293 1.187 0.398 1.48 1.414 0.293 3.215 0.399 5.403 0.32 2.773-0.105 4.851-0.253 6.238-0.441 1.496-0.188 2.855-0.508 4.082-0.961l0.637-1.719c-3.278 1.282-6.332 2.028-9.157 2.239-2.855 0.16-5.386-0.145-7.601-0.918z" inkscape:connector-curvature="0"/>
                      <path id="path378" style="fill-rule:evenodd;fill:#5d8039" d="m39.84 60.402c3.469 0.211 7.226-0.203 11.281-1.242 3.973-1.066 6.734-1.68 8.281-1.84 2.317-0.265 4.559-0.027 6.719 0.719 0.879 0.297 1.918 0.68 3.121 1.16 0.426-0.746 0.852-1.437 1.278-2.078-1.786-1.309-3.852-2.094-6.2-2.359-2.132-0.242-4.601-0.028-7.398 0.64-3.203 0.907-5.602 1.559-7.203 1.957-2.985 0.723-6.719 1.055-11.199 1 0.375 0.481 0.734 1.043 1.082 1.68l0.238 0.363z" inkscape:connector-curvature="0"/>
                      <path id="path380" style="fill-rule:evenodd;fill:#5d8039" d="m52.199 62.559c-3.254 0.535-6.664 0.589-10.238 0.16 0.348 0.64 0.586 1.176 0.719 1.601 1.601 0.399 3.574 0.547 5.922 0.442 2.21-0.137 4.878-0.52 8-1.16 2.718-0.536 4.89-0.79 6.519-0.762 1.895 0.027 3.481-0.028 4.758-0.16l0.32-1.278c-1.094-0.48-2.117-0.734-3.078-0.761-1.094-0.028-2.894 0.171-5.402 0.601-3.199 0.559-5.703 1-7.52 1.317z" inkscape:connector-curvature="0"/>
                      <path id="path382" style="fill-rule:evenodd;fill:#5d8039" d="m55 71.242c4.586-0.054 8.68-1.148 12.281-3.281l0.16-2.082c-2.828 0.933-6.105 1.629-9.839 2.082-4.614 0.508-9.293 0.332-14.043-0.52l0.562 2.68c3.734 0.801 7.359 1.172 10.879 1.121z" inkscape:connector-curvature="0"/>
                    </g>
                  </g>
                </g>
              </g>
            </g>
          </g>
        </g>
      </g>
      <g id="g384">
        <g id="g400" mask="url(#mask392)">
          <g id="g412">
            <g id="g414" clip-path="url(#clipPath404)">
              <g id="g416">
                <g id="g420">
                  <g id="g422" clip-path="url(#clipPath408)">
                    <g id="g424">
                      <path id="path426" style="fill-rule:evenodd;fill:#000000" d="m63.441 76.32c-0.265 1.653-0.679 2.762-1.242 3.321-0.398 0.398-0.84 1.148-1.32 2.238-0.426 1.016-0.813 1.641-1.16 1.883-0.371 0.238-1.172 0.426-2.399 0.558-1.574 0.16-2.613 0.305-3.121 0.442-0.773 0.211-1.84 1.211-3.199 3-0.961 1.304-1.586 2.254-1.879 2.84v0.078l0.758 1.082c2.109 0.64 4.43 0.972 6.961 1 3.414 0 5.293-0.817 5.64-2.442 0.028-0.078 0.813-2.347 2.36-6.8 1.199-3.415 1.922-6.801 2.16-10.161 0.133-1.839 0.254-3.957 0.359-6.359 0.11-1.84 0.321-3.492 0.641-4.961 0.242-1.117 1.066-2.746 2.48-4.879 0.719-1.066 1.399-2.027 2.04-2.879-0.481-0.453-1.2-0.949-2.161-1.48-1.89-1.039-3.972-1.719-6.238-2.039-2.293-0.348-4.746-0.282-7.359 0.199 3.172-0.106 5.574 0.453 7.199 1.68 1.281 0.961 1.801 1.961 1.559 3-0.266 1.121-0.614 2.093-1.04 2.918-0.585 1.121-1.214 1.75-1.878 1.882-3.227 0.692-6.52 1.559-9.883 2.598-1.84 0.586-3.973 0.895-6.399 0.922-1.386 0.027-2.668-0.039-3.84-0.199v0.039c1.973 0.773 3.879 1.187 5.719 1.238 2.321 0.109 3.563 0.16 3.723 0.16 1.57 0.215 2.504 0.707 2.797 1.481 0.16 0.453-1.039 3.468-3.598 9.039-2.613 5.629-3.746 9.109-3.402 10.441 0.16 0.641 2.617-2.918 7.363-10.68 4.824-7.921 7.398-11.734 7.719-11.441 0.668 0.613 1 3.215 1 7.801 0 1.629-0.121 3.121-0.36 4.48z" inkscape:connector-curvature="0"/>
                    </g>
                  </g>
                </g>
              </g>
            </g>
          </g>
        </g>
      </g>
      <path id="path428" style="fill-rule:evenodd;fill:#ffd466" d="m53.641 63.602c-2.934 0.531-5.11 0.785-6.52 0.757-1.789-0.05-3.121-0.171-4-0.359l-0.801-0.238c-0.105 0.078-0.199 0.199-0.281 0.359-0.105 0.32-0.012 0.664 0.281 1.039 0.453 0.586 2.282 0.852 5.481 0.801 1.547-0.055 3.426-0.309 5.64-0.762 1.278-0.238 3.305-0.652 6.079-1.238 2.933-0.535 5.668-0.668 8.199-0.402l0.242-0.239c0.16-0.215 0.238-0.441 0.238-0.679v-0.602c-2.851-0.184-5.48-0.078-7.879 0.32-2.828 0.536-5.054 0.95-6.679 1.243z" inkscape:connector-curvature="0"/>
      <path id="path430" style="fill-rule:evenodd;fill:#825321" d="m65.398 50.039 0.723 0.481c0.637 0.16 1.332-0.133 2.078-0.879 0.856-0.856 1.176-1.84 0.961-2.961-0.215-1.094-0.668-1.492-1.359-1.2-0.613 0.239-1.176 0.84-1.68 1.801-0.48 0.934-0.723 1.852-0.723 2.758z" inkscape:connector-curvature="0"/>
      <path id="path432" style="fill-rule:evenodd;fill:#734617" d="m75.961 55.602c0.348 0.503 0.773 0.824 1.281 0.957 0.692 0.187 1.399-0.067 2.117-0.758 0.75-0.719 1.856-2.414 3.321-5.082 1.203-2.239 2.082-4.012 2.64-5.321 0.535-1.277 1.106-2.918 1.723-4.918-2.348-3.464-4.348-6.027-6-7.679-3.707-3.707-5.977-5.106-6.801-4.199-0.453 0.503-1.121 2.984-2 7.437l-1.199 6.563c-0.695 1.492-1.816 3.039-3.363 4.64l-2.118 1.957c4.106 1.254 6.84 2.453 8.2 3.602 0.851 0.719 1.426 1.32 1.718 1.801 0.188 0.425 0.348 0.757 0.481 1z" inkscape:connector-curvature="0"/>
      <path id="path434" style="fill-rule:evenodd;fill:#965e21" d="m67.719 41.082c-0.934 1.863-1.598 3.199-2 4-1.305 2.586-1.012 4.145 0.883 4.68 1.707 0.453 2.89 0.133 3.558-0.961 1.735-2.719 3.332-6.559 4.801-11.52 0.746-2.48 1.305-4.679 1.68-6.601l0.039-1.36c-0.371-0.933-1.52-1.48-3.438-1.64-1.254-0.106-2.269 0.054-3.043 0.48l-0.758 0.719c0 2.055-0.015 3.414-0.043 4.082-0.023 0.934-0.117 2.172-0.277 3.719-0.16 1.226-0.629 2.695-1.402 4.402z" inkscape:connector-curvature="0"/>
      <path id="path436" style="fill-rule:evenodd;fill:#b0722f" d="m75.961 31.801c-0.082 1.172-0.426 3.027-1.039 5.558 0.746-2.504 1.32-4.73 1.719-6.679l0.039-1.36c-0.371-0.933-1.52-1.48-3.438-1.64-0.961-0.078-1.734-0.012-2.32 0.199 0.664-0.051 1.238-0.067 1.719-0.039 1.492 0.055 2.453 0.387 2.879 1 0.375 0.508 0.519 1.492 0.441 2.961z" inkscape:connector-curvature="0"/>
      <path id="path438" style="fill-rule:evenodd;fill:#7d4c19" d="m72.242 52.602c0.797 0.691 1.547 1.492 2.238 2.398 0.641 0.828 1.067 1.32 1.282 1.48 0.48 0.348 1.117 0.481 1.918 0.399 0.961-0.106 1.679-0.504 2.16-1.199 0.586-0.801 1.121-2.028 1.601-3.68 0.532-1.785 0.801-3.359 0.801-4.719 0-1.414-0.203-2.574-0.601-3.48-0.375-0.856-0.868-1.321-1.481-1.403-0.613-0.05-1.465 0.137-2.558 0.563-1.094 0.426-1.856 0.867-2.282 1.32-0.586 0.614-2.144 1.918-4.679 3.918-0.641 0.508-1.559 1.028-2.762 1.563l-1.637 0.64c0.051 0.024 0.879 0.211 2.477 0.559 1.496 0.348 2.668 0.894 3.523 1.641z" inkscape:connector-curvature="0"/>
      <path id="path440" style="fill-rule:evenodd;fill:#a86d2d" d="m70.441 49.082c1.707-1.816 3.36-3.336 4.957-4.562 1.524-1.172 2.641-1.813 3.364-1.918l1.398-0.204c-0.16-0.105-0.414-0.156-0.762-0.156-0.664-0.027-1.41 0.184-2.238 0.637s-2.16 1.469-4 3.043c-1.867 1.625-3.012 2.613-3.441 2.957-0.907 0.723-1.598 1.148-2.078 1.281-0.829 0.238-1.52-0.055-2.082-0.879-0.559-0.828-0.692-1.586-0.399-2.281-0.48 0.906-0.547 1.641-0.199 2.199 0.586 0.906 1.133 1.453 1.641 1.641 1.066 0.402 2.343-0.188 3.839-1.758z" inkscape:connector-curvature="0"/>
      <path id="path442" style="fill-rule:evenodd;fill:#b53220" d="m92.961 82.68c0.984 1.066 2.48 1.867 4.48 2.402l1-0.961c0.692-1.016 1.184-2.519 1.481-4.519 0.266-2.055 0.117-4.336-0.442-6.84-0.32-1.496-0.761-2.907-1.32-4.242-0.32-0.825-0.933-1.547-1.84-2.161-1.039-0.664-1.8-0.613-2.281 0.161-0.453 0.722-0.906 2.226-1.359 4.519l-0.52 3.242c-0.398 2.426-0.547 4.227-0.441 5.399 0.109 1.199 0.523 2.199 1.242 3z" inkscape:connector-curvature="0"/>
      <path id="path444" style="fill-rule:evenodd;fill:#deb550" d="m88.281 76.68 3.879 4.961 3.082 0.281c2.613 0.051 5.344-0.176 8.199-0.68 3.547-0.64 6.332-1.48 8.36-2.523 2.187-1.145 4.011-2.785 5.48-4.918 1.278-1.84 1.973-3.746 2.078-5.719 0.055-0.988-0.027-1.789-0.238-2.402-0.027 0.933-0.215 1.933-0.562 3-0.692 2.132-1.813 3.574-3.36 4.32-1.519 0.746-3.691 1.414-6.519 2l-3.801 0.68 3.402-0.961c2.559-1.227 4.559-3.344 6-6.36 1.414-3.011 2.293-6.304 2.641-9.879 0.16-1.812 0.183-3.304 0.078-4.48-0.055 0.828-0.199 1.828-0.441 3-0.504 2.32-1.239 4.293-2.2 5.922-0.984 1.625-2.027 3.039-3.117 4.238l-1.32 1.281 1.476-2.242c1.016-1.84 1.563-3.613 1.641-5.32l0.203-4.559c-0.082 1.012-0.308 2.16-0.683 3.442-0.719 2.504-1.747 4.332-3.079 5.48-1.332 1.172-2.972 2.266-4.921 3.278l-2.52 1.16 2.082-2.801c1.387-2.32 2.106-4.57 2.16-6.758l0.078-5.242c-0.183 1.629-0.504 3.348-0.961 5.16-0.906 3.629-2.05 5.949-3.437 6.961-1.359 0.988-2.469 1.719-3.32 2.199l-0.84 0.442 1.238-1.481c0.828-1.254 1.215-2.558 1.16-3.918-0.051-2.187-0.254-3.601-0.597-4.242 0.105 1.016-0.016 2.133-0.36 3.359-0.722 2.481-2.269 4.293-4.64 5.442-2.375 1.172-4.149 2.84-5.321 5l-1 2.879z" inkscape:connector-curvature="0"/>
      <path id="path446" style="fill-rule:evenodd;fill:#8f591a" d="m96.602 71.121-19 7.559 24.32-0.918 5.199-0.762-1.281-9.238c-4.028 1.359-7.106 2.48-9.238 3.359z" inkscape:connector-curvature="0"/>
      <path id="path448" style="fill-rule:evenodd;fill:#b87932" d="m74.922 82.398 0.199 1.883 12.039-1.359c8.32-0.934 13.172-1.508 14.559-1.723 2.215-0.344 3.922-0.519 5.121-0.519l-1.36-8.68c-0.105-0.879-0.292-1.734-0.558-2.559-15.469 5.735-24.535 9.067-27.203 10-1.653 0.586-2.586 1.575-2.797 2.957z" inkscape:connector-curvature="0"/>
      <path id="path450" style="fill-rule:evenodd;fill:#ffd466" d="m118 72.961c-0.961 1.973-2 3.281-3.121 3.918-0.691 0.43-1.797 0.883-3.32 1.363l-2.039 0.598 2.039-1.039c1.629-1.176 3.109-3 4.441-5.481 1.332-2.508 2.16-5.105 2.48-7.8 0.161-1.332 0.188-2.426 0.079-3.278-0.317 1.785-0.918 3.664-1.797 5.637-1.762 3.894-4.016 6.226-6.762 7-2.719 0.773-5.508 1.242-8.359 1.402h-3.442l2.68-1.039c2.055-0.961 3.695-2.121 4.922-3.48 1.972-2.16 2.961-3.52 2.961-4.082-1.282 1.121-2.883 2.254-4.801 3.402-3.785 2.316-7.199 3.531-10.242 3.637l-7.279 0.281 4.68-0.641c3.652-0.773 6.84-2.105 9.559-4 2.933-2.027 5.148-4.011 6.64-5.961 1.067-1.382 1.828-2.851 2.282-4.398 0.503-1.625 0.691-3.508 0.558-5.641-0.265 1.547-0.828 3.243-1.68 5.082-1.679 3.707-4 6.321-6.96 7.84-2.586 1.305-5 2.332-7.239 3.078l-2.601 0.723c-1.039 0.211-2.094 0.57-3.16 1.078-2.161 1.016-3.321 2.227-3.481 3.641-0.16 1.387 0.734 3.199 2.68 5.441 0.988 1.117 1.972 2.106 2.961 2.957l2.16 0.242c1.867 0.184 3.867 0.321 6 0.399 2.879 0.105 5.199 0.015 6.961-0.281 2.215-0.399 4.281-1.211 6.199-2.438 1.707-1.094 3.227-2.773 4.559-5.039 0.64-1.148 1.121-2.187 1.441-3.121z" inkscape:connector-curvature="0"/>
      <path id="path452" style="fill-rule:evenodd;fill:#deb550" d="m93.242 79.922-3.48-0.922l0.16-0.199c0.238-0.133 0.68-0.199 1.32-0.199 6.453 0 10.758-0.403 12.918-1.204 2.141-0.781 5.121-2.46 8.942-5.039-0.485 0.301-1.129 0.621-1.942 0.961-1.945 0.828-4.078 1.387-6.398 1.68-2.297 0.32-4.574 0.414-6.84 0.281l-2.68-0.281 0.957-0.32c0.801-0.321 1.68-0.758 2.641-1.321 1.379-0.82 2.851-1.761 4.422-2.82-0.465 0.301-1.004 0.613-1.621 0.941-1.707 0.907-3.332 1.508-4.879 1.801-1.52 0.293-2.922 0.465-4.203 0.52l-1.438-0.039c-0.855 0.426-1.574 0.758-2.16 1-1.895 1.863-2.973 3.105-3.242 3.718-0.239 0.536 0.402 1.266 1.922 2.2 1.734 1.039 3.828 1.746 6.281 2.121 2.238 0.32 4.637 0.398 7.199 0.238 1.254-0.078 2.293-0.199 3.121-0.359h-3.121c-1.176 0-2.199-0.121-3.082-0.36l-1-0.359 4.68-0.359c2.187-0.161 4.363-0.79 6.523-1.883 1.09-0.531 1.957-1.051 2.598-1.559-0.664 0.399-1.586 0.813-2.758 1.238-2.32 0.829-4.668 1.282-7.043 1.364-2.371 0.05-4.973-0.227-7.797-0.84z" inkscape:connector-curvature="0"/>
      <path id="path454" style="fill-rule:evenodd;fill:#ff462e" d="m71.398 78.68c-3.011 1.359-4.984 2.265-5.918 2.718-1.414 0.668-2.425 1.457-3.039 2.364-0.214 0.48-0.293 0.984-0.242 1.519 0.082 1.039 0.762 1.614 2.043 1.719l2.84-0.16c3.066-0.238 7.492-0.68 13.277-1.32 5.789-0.641 10.375-0.907 13.762-0.801 1.68 0.054 2.785 0.176 3.32 0.363-0.453-0.297-0.933-0.894-1.441-1.801-0.984-1.789-1.574-4.199-1.758-7.242-0.187-3.012-0.176-5.598 0.039-7.758 0.133-1.093 0.266-1.883 0.399-2.359-0.133 0.371-0.559 0.851-1.282 1.437-1.437 1.227-3.57 2.442-6.398 3.641-2.746 1.148-5.535 2.453-8.359 3.922-3.039 1.625-5.453 2.879-7.243 3.758z" inkscape:connector-curvature="0"/>
      <g id="g456">
        <g id="g472" mask="url(#mask464)">
          <g id="g484">
            <g id="g486" clip-path="url(#clipPath476)">
              <g id="g488">
                <g id="g492">
                  <g id="g494" clip-path="url(#clipPath480)">
                    <g id="g496">
                      <path id="path498" style="fill-rule:evenodd;fill:#5d8039" d="m88.68 84.801c-1.68-1.121-3-2.625-3.961-4.52-1.25-2.508-1.637-5.105-1.16-7.801l-1.957 0.961c-0.481 1.918-0.375 3.934 0.32 6.039 0.664 2.133 2.039 3.973 4.117 5.52l2.641-0.199z" inkscape:connector-curvature="0"/>
                      <path id="path500" style="fill-rule:evenodd;fill:#5d8039" d="m78.359 85.762 2.801-0.321c-0.988-0.562-1.933-1.347-2.84-2.359-1.066-1.203-1.746-2.574-2.039-4.121-0.16-0.988-0.176-1.906-0.043-2.762l-1.398 0.723c-0.133 1.039-0.094 2.105 0.121 3.199 0.453 2.481 1.586 4.359 3.398 5.641z" inkscape:connector-curvature="0"/>
                      <path id="path502" style="fill-rule:evenodd;fill:#5d8039" d="m91.922 84.719h2.598c-1.36-1.625-2.454-3.664-3.282-6.117-1.172-3.336-1.011-6.668 0.481-10-0.637 0.398-1.438 0.839-2.399 1.32-1.121 2.453-1.32 5.183-0.601 8.199 0.562 2.504 1.629 4.707 3.203 6.598z" inkscape:connector-curvature="0"/>
                      <path id="path504" style="fill-rule:evenodd;fill:#5d8039" d="m65.52 86.961c-1.2-1.281-1.426-3.027-0.68-5.242l-1.16 0.722c-0.532 1.946-0.321 3.465 0.64 4.559l1.2-0.039z" inkscape:connector-curvature="0"/>
                      <path id="path506" style="fill-rule:evenodd;fill:#5d8039" d="m72.238 78.281-1 0.481c-0.426 1.547-0.519 2.933-0.277 4.16 0.238 1.226 0.879 2.359 1.918 3.398l1.48-0.16c-1.121-0.695-1.894-1.547-2.32-2.558-0.531-1.254-0.465-3.028 0.199-5.321z" inkscape:connector-curvature="0"/>
                      <path id="path508" style="fill-rule:evenodd;fill:#5d8039" d="m68.32 84.68c-0.347-1.094-0.441-2.559-0.281-4.399l-0.598 0.239c-0.32 1.175-0.48 2.105-0.48 2.8 0 1.121 0.426 2.266 1.277 3.442l1.442-0.16c-0.664-0.481-1.121-1.122-1.36-1.922z" inkscape:connector-curvature="0"/>
                    </g>
                  </g>
                </g>
              </g>
            </g>
          </g>
        </g>
      </g>
      <g id="g510">
        <g id="g526" mask="url(#mask518)">
          <g id="g538">
            <g id="g540" clip-path="url(#clipPath530)">
              <g id="g542">
                <g id="g546">
                  <g id="g548" clip-path="url(#clipPath534)">
                    <g id="g550">
                      <path id="path552" style="fill-rule:evenodd;fill:#5d8039" d="m82.441 79.719c-4.988 1.254-10.148 2.457-15.48 3.601-2.082 0.559-3.668 1.055-4.762 1.481-0.023 0.16-0.023 0.332 0 0.519 1.067-0.453 2.43-0.812 4.082-1.078 1.067-0.16 2.985-0.375 5.758-0.64 3.496-0.321 9.453-1.52 17.883-3.602 1.625-0.398 3.183-0.707 4.68-0.918-0.161-0.855-0.282-1.789-0.36-2.801-3.922 1.305-7.855 2.453-11.801 3.438z" inkscape:connector-curvature="0"/>
                    </g>
                  </g>
                </g>
              </g>
            </g>
          </g>
        </g>
      </g>
      <g id="g554">
        <g id="g570" mask="url(#mask562)">
          <g id="g582">
            <g id="g584" clip-path="url(#clipPath574)">
              <g id="g586">
                <g id="g590">
                  <g id="g592" clip-path="url(#clipPath578)">
                    <g id="g594">
                      <path id="path596" style="fill-rule:evenodd;fill:#5d8039" d="m88.32 72.121c-1.972 0.824-4.453 1.934-7.441 3.32-3.625 1.707-5.945 2.786-6.957 3.239-0.723 0.32-2.297 0.879-4.723 1.679-2.293 0.746-4.133 1.442-5.519 2.082-0.504 0.371-0.918 0.813-1.239 1.321 1.735-0.668 3.465-1.254 5.2-1.762 3.011-1.145 5.851-2.121 8.519-2.918 1.254-0.375 4.094-1.547 8.52-3.523 4.215-1.864 6.972-2.957 8.281-3.278l1.16-0.32 0.078-2.359-5.879 2.519z" inkscape:connector-curvature="0"/>
                    </g>
                  </g>
                </g>
              </g>
            </g>
          </g>
        </g>
      </g>
      <g id="g598">
        <g id="g614" mask="url(#mask606)">
          <g id="g626">
            <g id="g628" clip-path="url(#clipPath618)">
              <g id="g630">
                <g id="g634">
                  <g id="g636" clip-path="url(#clipPath622)">
                    <g id="g638">
                      <path id="path640" style="fill-rule:evenodd;fill:#5d8039" d="m96.238 83.719c-0.343-0.559-0.597-1.067-0.758-1.52-1.839 0.242-4.054 0.442-6.64 0.602-2.426 0.16-5.254 0.504-8.481 1.039-3.464 0.613-5.8 0.972-7 1.082-5.332 0.531-8.851 1.051-10.558 1.558 0.16 0.161 0.465 0.305 0.918 0.442 2.722-0.801 6.601-1.375 11.64-1.723 0.934-0.051 3.696-0.359 8.282-0.918 3.972-0.453 6.64-0.679 8-0.679 1.785 0 3.32 0.039 4.597 0.117z" inkscape:connector-curvature="0"/>
                    </g>
                  </g>
                </g>
              </g>
            </g>
          </g>
        </g>
      </g>
      <path id="path642" style="fill-rule:evenodd;fill:#ffed91" d="m111.12 77.359c1.68-1.386 3.094-3.05 4.238-5 0.586-0.984 1-1.828 1.243-2.519-0.508 0.988-1.254 2.082-2.243 3.281-1.945 2.371-4.132 4.012-6.558 4.918-2.242 0.856-4.36 1.43-6.36 1.723l-2.32 0.199 4.52-0.082c3.332-0.32 5.824-1.16 7.48-2.52z" inkscape:connector-curvature="0"/>
      <path id="path644" style="fill-rule:evenodd;fill:#ffed91" d="m111.8 80.559c1.945-1.278 2.945-2.184 3-2.719-2 1.734-3.801 2.84-5.403 3.32-0.984 0.293-2.156 0.574-3.519 0.84l-1.758 0.359 2.758-0.199c2.082-0.293 3.723-0.828 4.922-1.601z" inkscape:connector-curvature="0"/>
      <path id="path646" style="fill-rule:evenodd;fill:#ffed91" d="m104.4 71.641c1.524-1.254 2.309-2.039 2.364-2.36-2.727 2.371-4.793 3.86-6.203 4.461l0.683-0.222c1.145-0.481 2.199-1.106 3.156-1.879z" inkscape:connector-curvature="0"/>
      <path id="path648" style="fill-rule:evenodd;fill:#c78135" d="m48.879 91.801c0.348 0.32 0.297-0.133-0.16-1.36-0.453-1.253 0.629-4.574 3.242-9.961 0.398-0.8 2.559-4.867 6.48-12.199 1.067-2 2.985-5.496 5.758-10.48 2.266-4.348 3.508-7.387 3.723-9.121 0.211-1.707 0.039-2.52-0.524-2.438l-0.878 0.637c-0.481 1.336-1.145 2.976-2 4.922-1.68 3.918-3.438 7.465-5.278 10.64-2.535 4.371-5.015 8.825-7.441 13.36-2.801 5.254-4.453 8.613-4.961 10.078-0.453 1.441-0.481 2.668-0.078 3.68 0.343 0.855 0.824 1.32 1.437 1.402 0.266 0.398 0.496 0.68 0.68 0.84z" inkscape:connector-curvature="0"/>
      <path id="path650" style="fill-rule:evenodd;fill:#754b20" d="m49.242 91c0.266 0.398 0.492 0.68 0.68 0.84 0.344 0.32 0.293-0.133-0.16-1.36-0.453-1.253 0.636-4.558 3.277-9.921 0.348-0.692 2.508-4.758 6.481-12.2 1.066-2 2.972-5.504 5.722-10.519 2.266-4.32 3.504-7.348 3.719-9.078 0.238-1.735 0-2.574-0.719-2.52l-1.121 0.637c-0.402 1.336-0.988 2.988-1.762 4.961-1.519 3.922-3.199 7.469-5.039 10.64-2.586 4.454-5.066 8.918-7.441 13.399-2.824 5.254-4.481 8.613-4.957 10.082-0.481 1.437-0.508 2.664-0.082 3.68 0.348 0.828 0.812 1.281 1.402 1.359z" inkscape:connector-curvature="0"/>
      <path id="path652" style="fill-rule:evenodd;fill:#966128" d="m48.719 90.68c0.269 0.402 0.496 0.679 0.679 0.84 0.348 0.292 0.297-0.172-0.156-1.399-0.453-1.254 0.625-4.562 3.238-9.922 0.399-0.773 2.559-4.84 6.481-12.199 1.066-2 2.984-5.508 5.758-10.52 2.269-4.32 3.508-7.347 3.722-9.082 0.211-1.703-0.043-2.531-0.761-2.476l-1.121 0.598c-0.399 1.335-0.985 2.988-1.758 4.96-1.52 3.918-3.199 7.465-5.039 10.641-2.508 4.348-4.989 8.813-7.442 13.399-2.8 5.253-4.453 8.613-4.961 10.082-0.453 1.437-0.48 2.664-0.078 3.679 0.344 0.824 0.824 1.293 1.438 1.399z" inkscape:connector-curvature="0"/>
      <path id="path654" style="fill-rule:evenodd;fill:#b07737" d="m77.121 121.64c-4.348-0.266-9.336-0.082-14.961 0.558-6.16 0.723-11.148 1.817-14.961 3.281-4.48 1.708-6.597 3.708-6.359 6 0.215 2 1.961 4.239 5.242 6.719 4.398 3.36 6.746 5.215 7.039 5.563 1.227 1.437 2.559 2.57 4 3.398 0.746 0.426 1.359 0.707 1.84 0.84l2.758-0.121c2.109-0.133 3.773-0.359 5-0.68 1.226-0.344 2.402-0.597 3.519-0.758 0.696-0.109 2-0.293 3.922-0.562 1.547-0.238 3.028-1.371 4.442-3.399 1.144-1.625 1.89-3.16 2.238-4.601 0.133-0.531 0.508-2.586 1.121-6.16 0.641-3.625 1.16-6.278 1.559-7.957 0.265-1.121-1.868-1.828-6.399-2.121z" inkscape:connector-curvature="0"/>
      <path id="path656" style="fill-rule:evenodd;fill:#a36e33" d="m78.801 142.16c1.011-1.519 1.691-2.945 2.039-4.281 0.265-1.117 0.933-4.785 2-11-0.774-0.024-2.067-0.024-3.879 0-2.32 0.055-4.055 0.082-5.199 0.082-4.321 0-7.297 1.559-8.922 4.68-0.641 1.199-0.813 2.265-0.52 3.199 0.321 0.933 1.067 1.375 2.239 1.32 2.746-0.16 4.855-0.039 6.32 0.36 1.84 0.535 2.988 1.562 3.441 3.082 0.321 1.199 0.293 2.371-0.082 3.519-0.265 0.774-0.73 1.641-1.398 2.598 1.387-0.453 2.707-1.637 3.961-3.559z" inkscape:connector-curvature="0"/>
      <path id="path658" style="fill-rule:evenodd;fill:#a36e33" d="m66.719 147.2c1.176-0.32 2.242-0.558 3.203-0.719-1.602-0.425-2.762-0.625-3.481-0.601-0.746 0.027-1.507 0.242-2.281 0.641-0.48 0.214-1.226 0.668-2.238 1.359 1.945-0.106 3.543-0.332 4.797-0.68z" inkscape:connector-curvature="0"/>
      <path id="path660" style="fill-rule:evenodd;fill:#cc8c43" d="m68.719 137.2c4.64-0.933 8.148-2.011 10.519-3.238 1.574-0.801 5.481-3.32 11.723-7.563 6.691-4.531 9.332-7.863 7.918-10-0.32-0.453-1.305-1.293-2.957-2.519-1.442-1.067-2.336-2.078-2.684-3.039-0.746-2.16-5.039-2.707-12.879-1.641-9.226 1.735-15.386 2.84-18.48 3.321-1.117 0.16-1.746 0.347-1.879 0.562-0.055 0.078 0.016 0.305 0.199 0.68 0.348 0.664-1.027 1.32-4.117 1.957-4.801 0.988-8.75 1.679-11.844 2.082-4.183 0.586-9.183 1.011-15 1.281-5.597 0.238-7.972 1.813-7.117 4.719 0.32 1.121 1.094 2.215 2.32 3.281 1.172 1.039 2.371 1.746 3.598 2.117 1.707 0.508 3.629 2.055 5.762 4.641 2.187 2.64 3.824 4.16 4.918 4.558 5.496 2.028 10.867 2.684 16.121 1.961 3.094-0.453 7.719-1.504 13.879-3.16z" inkscape:connector-curvature="0"/>
      <path id="path662" style="fill-rule:evenodd;fill:#91602a" d="m68.039 136.84c4.586-0.934 8.336-2.145 11.242-3.641 1.758-0.906 5.907-3.519 12.438-7.84 6.082-4.027 8.441-7.277 7.082-9.757-0.321-0.614-1.227-1.614-2.719-3-1.387-1.282-2.242-2.387-2.562-3.321-0.747-2.16-5.028-2.707-12.84-1.64-9.227 1.734-15.399 2.839-18.52 3.32-1.121 0.16-1.746 0.348-1.879 0.559-0.054 0.082 0.012 0.308 0.199 0.679 0.348 0.668-1.027 1.321-4.121 1.961-5.199 1.281-9.171 2.238-11.918 2.879-4.882 1.094-9.906 1.762-15.082 2-5.597 0.242-7.972 1.707-7.121 4.402 0.321 1.039 1.094 2.067 2.321 3.079 1.148 0.96 2.347 1.628 3.601 2 1.762 0.535 3.922 2.187 6.481 4.96 2.531 2.801 4.171 4.305 4.918 4.52 6.828 1.922 12.363 2.547 16.601 1.879 2.586-0.399 6.547-1.414 11.879-3.039z" inkscape:connector-curvature="0"/>
      <path id="path664" style="fill-rule:evenodd;fill:#7a5123" d="m69.84 128.28c2.558-0.64 4.855-1.519 6.879-2.64 2.586-1.442 4.801-2.973 6.64-4.602 1.039-0.934 2.227-2.16 3.563-3.68 0.824-0.984 0.957-2.199 0.398-3.64-0.508-1.278-1.281-2.199-2.32-2.758-0.852-0.484-2.766-0.649-5.738-0.5-2.977 0.152-6.571 1.004-10.782 2.559-4.21 1.554-7.292 2.48-9.242 2.781-14.468 2.187-20.16 5.297-17.078 9.32 4.34 3.762 11.781 5.199 22.32 4.32l5.36-1.16z" inkscape:connector-curvature="0"/>
      <path id="path666" style="fill-rule:evenodd;fill:#ffde9c" d="m81.762 119.28 0.16-5.801c-0.137-4.4-0.817-7.93-2.043-10.6-1.227-2.72-1.973-4.294-2.238-4.72-0.801-1.254-1.84-2.027-3.121-2.32-1.2-0.266-3.215-0.879-6.04-1.84l-3.878-1.359 0.117-1.282c0.32-0.961 1.043-1.664 2.16-2.117 1.789-0.695 3.309-1.043 4.562-1.043-0.507-0.371-1.16-0.746-1.961-1.117-1.601-0.75-3.082-1.16-4.441-1.242-1.039-0.051-2.25 0.105-3.641 0.48-1.199 0.321-2.265 0.375-3.199 0.16-1.465-0.347-2.492-0.492-3.078-0.441-0.801 0.109-1.828 0.613-3.082 1.52-1.414 1.015-2.625 1.707-3.641 2.082-1.093 0.453-2.293 0.679-3.597 0.679h-2.68l1.879 0.762c1.465 0.559 2.762 1.012 3.879 1.359 1.789 0.559 3.176 0.774 4.16 0.641-0.746 0.426-1.664 1.023-2.758 1.797-2.187 1.519-4.093 3.121-5.722 4.801-1.891 1.945-3.118 4.039-3.68 6.281-0.531 2.027-0.68 4.973-0.438 8.84 0.133 2.586 0.36 4.613 0.68 6.078 0.504 2.297 1.305 3.961 2.399 5 1.574 1.496 4.496 2.668 8.761 3.519 5.199 1.043 10.399 1 15.598-0.117 5.84-1.226 10.082-3.265 12.723-6.121 1.304-1.414 2.023-2.707 2.16-3.879z" inkscape:connector-curvature="0"/>
      <path id="path668" style="fill-rule:evenodd;fill:#dbbc7b" d="m78.441 109.4c0.719 4.457 0.653 7.95-0.203 10.481-0.769 2.297-3.543 4.137-8.316 5.519-4.402 1.309-9.469 1.961-15.203 1.961-5.973 0-10.504-1.144-13.598-3.437 0.453 0.851 0.918 1.504 1.399 1.957 1.574 1.496 4.496 2.668 8.761 3.519 5.199 1.043 10.399 1 15.598-0.117 5.84-1.226 10.082-3.265 12.723-6.121 1.304-1.414 2.023-2.707 2.16-3.879l0.16-5.801c-0.137-4.4-0.817-7.93-2.043-10.6-1.227-2.72-1.973-4.294-2.238-4.72-0.801-1.254-1.84-2.027-3.121-2.32-1.2-0.266-3.215-0.879-6.04-1.84l-3.878-1.359 0.117-1.282c0.32-0.961 1.043-1.664 2.16-2.117 1.789-0.695 3.309-1.043 4.562-1.043-0.507-0.371-1.16-0.746-1.961-1.117-1.601-0.75-3.082-1.16-4.441-1.242h-0.918c0.481 0.719 0.531 1.574 0.16 2.558-0.265 0.696-0.789 1.547-1.562 2.563-0.719 0.879-1.934 1.613-3.637 2.199l-2.363 0.602 1.64 1.199c1.442 0.824 3.028 1.266 4.762 1.32 2.613 0.078 4.641 0.293 6.078 0.641 2.16 0.531 3.949 1.492 5.36 2.879 1.816 1.758 3.109 4.961 3.882 9.597z" inkscape:connector-curvature="0"/>
      <path id="path670" style="fill-rule:evenodd;fill:#d17f4f" d="m43.961 119.08 0.68-1.08c0.375-1.012 0.414-2.254 0.121-3.719-0.27-1.359-0.789-2.32-1.563-2.879l-1.078-0.441-1.883 0.441-0.597 3.598 1.879 5 2.441-0.918z" inkscape:connector-curvature="0"/>
      <path id="path672" style="fill-rule:evenodd;fill:#ffa470" d="m39.879 111.56c-0.774 0.535-1.254 1.336-1.438 2.402-0.242 1.254-0.136 2.441 0.321 3.559 0.398 1.015 1 1.761 1.797 2.242 1.23 0.718 2.109 0.093 2.64-1.883 0.535-1.945 0.321-3.68-0.64-5.199-0.852-1.36-1.747-1.735-2.68-1.121z" inkscape:connector-curvature="0"/>
      <path id="path674" style="fill-rule:evenodd;fill:#ffbc96" d="m39.559 115.4c-0.239 0.559-0.332 1.133-0.278 1.719 0.051 0.531 0.211 0.945 0.481 1.238 0.078 0.106 0.199-0.171 0.359-0.839 0.211-1.094 0.586-2.118 1.117-3.079l0.762-1.04c0.215-0.269 0.188-0.457-0.078-0.562-0.32-0.106-0.734 0.133-1.242 0.719-0.481 0.562-0.852 1.175-1.121 1.843z" inkscape:connector-curvature="0"/>
      <path id="path676" style="fill-rule:evenodd;fill:#ffc9ab" d="m39.879 114.08c-0.238-0.617-0.465-0.949-0.68-1-0.32-0.109-0.414 0.211-0.277 0.957 0.133 0.773 0.426 1.508 0.879 2.203 0.426 0.664 0.894 1.211 1.398 1.637 0.426 0.375 0.735 0.562 0.922 0.562 0.348 0.028 0.359-0.214 0.039-0.722-0.508-0.664-0.879-1.16-1.121-1.477-0.398-0.59-0.785-1.308-1.16-2.16z" inkscape:connector-curvature="0"/>
      <path id="path678" style="fill-rule:evenodd;fill:#d17f4f" d="m68.16 117.36c0.559-1.117 0.613-2.453 0.16-4-0.425-1.386-1.242-2.343-2.441-2.879-1.012-0.453-2-0.535-2.957-0.238-1.094 0.317-1.961 0.906-2.602 1.758-0.453 0.641-0.718 1.309-0.8 2l1.441 3.32c1.144 2.16 2.211 3.121 3.199 2.879 2.028-0.504 3.36-1.453 4-2.84z" inkscape:connector-curvature="0"/>
      <path id="path680" style="fill-rule:evenodd;fill:#ffa470" d="m66.359 118.6c1.336-1.895 1.375-3.84 0.121-5.84-1.093-1.789-2.48-2.508-4.16-2.16-1.414 0.293-2.398 0.984-2.961 2.078-0.64 1.308-0.718 2.629-0.238 3.961 0.426 1.254 1.238 2.265 2.438 3.039 1.839 1.199 3.441 0.84 4.8-1.078z" inkscape:connector-curvature="0"/>
      <path id="path682" style="fill-rule:evenodd;fill:#ffbc96" d="m65.32 113c0.375-0.32 0.305-0.535-0.199-0.641-0.59-0.132-1.309 0.067-2.16 0.602-0.75 0.504-1.387 1.121-1.922 1.84-0.504 0.664-0.773 1.359-0.801 2.078-0.023 0.746 0.215 1.269 0.723 1.562 0.184 0.133 0.414-0.175 0.68-0.921 0.453-1.2 1.187-2.332 2.199-3.399 0.32-0.32 0.812-0.695 1.48-1.121z" inkscape:connector-curvature="0"/>
      <path id="path684" style="fill-rule:evenodd;fill:#ffc9ab" d="m65.121 118.68c0.586 0.027 0.625-0.254 0.117-0.84-0.797-0.774-1.383-1.36-1.758-1.758-0.668-0.695-1.292-1.551-1.878-2.562-0.403-0.719-0.762-1.122-1.082-1.2-0.508-0.132-0.653 0.254-0.442 1.16 0.188 0.907 0.656 1.774 1.402 2.602 0.692 0.773 1.426 1.426 2.2 1.957 0.668 0.426 1.148 0.641 1.441 0.641z" inkscape:connector-curvature="0"/>
      <path id="path686" style="fill-rule:evenodd;fill:#b38c3b" d="m76.48 125.68c0.692-2.055 1.2-3.868 1.52-5.438 0.266-1.281 0.172-3.547-0.281-6.801-0.106-0.8-0.481-3.093-1.117-6.882-0.243-1.571-0.989-3.293-2.243-5.161-1.277-1.89-2.597-3.238-3.961-4.039-1.117-0.664-2.957-1.464-5.519-2.398l-3.481-1.199 0.684-1.68c0.477-1.336 0.824-2.551 1.039-3.641 0.106-0.668 0.305-1.535 0.598-2.601l-0.637 0.082c-0.27 1.68-0.523 2.89-0.762 3.637l-1.32 4.402 2.199 0.519c1.762 0.508 3.336 1.094 4.723 1.762 1.68 0.824 3.226 2.078 4.637 3.758 1.281 1.547 2.269 3.227 2.961 5.039 0.562 1.496 0.972 3.293 1.242 5.402 0.105 0.852 0.293 3.184 0.558 7 0.133 2.184-0.281 5.028-1.238 8.52l0.398-0.281z" inkscape:connector-curvature="0"/>
      <path id="path688" style="fill-rule:evenodd;fill:#9c782d" d="m79.359 119.84c-0.558-0.535-1.187-1.039-1.879-1.52-0.695-0.48-1.148-0.707-1.359-0.679-0.242 0.027-0.402 0.226-0.48 0.601-0.055 0.399 0.105 0.664 0.48 0.797 0.559 0.215 1.504 0.867 2.84 1.961 0.32 0.242 0.57 0.199 0.758-0.121 0.16-0.293 0.043-0.637-0.36-1.039z" inkscape:connector-curvature="0"/>
      <path id="path690" style="fill-rule:evenodd;fill:#a88231" d="m77.281 119.36c-0.722 0.746-1.226 1.227-1.519 1.442-0.215 0.187-0.254 0.414-0.121 0.679 0.132 0.293 0.304 0.415 0.519 0.36 0.508-0.133 1.238-0.735 2.199-1.801 0.989-1.094 1.469-1.891 1.442-2.398-0.028-0.508-0.176-0.746-0.442-0.719-0.265 0.023-0.504 0.238-0.718 0.637-0.161 0.375-0.614 0.976-1.36 1.8z" inkscape:connector-curvature="0"/>
      <path id="path692" style="fill-rule:evenodd;fill:#9c782d" d="m78.52 110.84c-0.641-0.535-1.348-1.028-2.122-1.481-0.796-0.453-1.304-0.652-1.519-0.597-0.238 0.05-0.387 0.277-0.438 0.679-0.054 0.399 0.133 0.664 0.559 0.801 0.613 0.156 1.652 0.774 3.121 1.84 0.348 0.211 0.613 0.16 0.801-0.16 0.183-0.32 0.051-0.68-0.402-1.082z" inkscape:connector-curvature="0"/>
      <path id="path694" style="fill-rule:evenodd;fill:#a88231" d="m77.68 108.64c-0.133 0.347-0.559 0.961-1.282 1.839-0.636 0.774-1.105 1.305-1.398 1.602-0.215 0.184-0.238 0.41-0.078 0.68 0.16 0.293 0.332 0.398 0.519 0.32 0.504-0.16 1.211-0.801 2.118-1.922 0.906-1.148 1.336-1.972 1.281-2.48-0.051-0.504-0.215-0.746-0.481-0.719-0.265 0.027-0.492 0.254-0.679 0.68z" inkscape:connector-curvature="0"/>
      <path id="path696" style="fill-rule:evenodd;fill:#9c782d" d="m75.52 101.48c-0.692-0.375-1.426-0.707-2.2-1-0.8-0.265-1.304-0.359-1.519-0.281-0.215 0.082-0.309 0.309-0.281 0.68 0.027 0.402 0.253 0.629 0.679 0.68 0.375 0.027 0.922 0.203 1.641 0.523 0.398 0.16 0.922 0.383 1.558 0.68 0.375 0.133 0.618 0.023 0.723-0.321 0.106-0.375-0.094-0.695-0.601-0.961z" inkscape:connector-curvature="0"/>
      <path id="path698" style="fill-rule:evenodd;fill:#a88231" d="m75.199 99.762c-0.16-0.508-0.359-0.735-0.597-0.68-0.243 0.051-0.403 0.305-0.481 0.758-0.082 0.375-0.359 1-0.84 1.879-0.426 0.773-0.761 1.32-1 1.64-0.16 0.215-0.133 0.442 0.078 0.68 0.188 0.242 0.375 0.309 0.563 0.203 0.476-0.269 1.012-0.949 1.598-2.043 0.613-1.144 0.839-1.957 0.679-2.437z" inkscape:connector-curvature="0"/>
      <path id="path700" style="fill-rule:evenodd;fill:#a87831" d="m58.961 107.96c-1.707-0.773-4.359-1.176-7.961-1.199-2.426-0.028-4.32 0.172-5.68 0.597-1.066 0.348-1.601 0.746-1.601 1.2 0 0.242 0.496 0.214 1.48-0.079 1.735-0.507 3.707-0.718 5.922-0.64 2.293 0.082 4.481 0.387 6.559 0.922 1.625 0.426 2.468 0.625 2.519 0.597 0.508-0.32 0.094-0.785-1.238-1.398z" inkscape:connector-curvature="0"/>
      <path id="path702" style="fill-rule:evenodd;fill:#a87831" d="m44.762 108.32c0.265 0.961 0.613 1.399 1.039 1.321 0.16-0.028 0.054-0.321-0.321-0.879-0.242-0.321-0.359-1.028-0.359-2.121 0-0.348-0.055-0.536-0.16-0.559-0.106-0.027-0.227 0.09-0.359 0.359-0.137 0.344-0.082 0.973 0.16 1.879z" inkscape:connector-curvature="0"/>
      <path id="path704" style="fill-rule:evenodd;fill:#a87831" d="m47.762 108.56c0.183 0.48 0.371 0.722 0.558 0.722 0.215 0.028 0.254-0.215 0.121-0.722-0.214-0.825-0.32-1.25-0.32-1.278 0-0.082 0.027-0.402 0.078-0.961 0-0.293-0.066-0.453-0.199-0.48-0.32 0-0.48 0.508-0.48 1.519-0.028 0.348 0.054 0.746 0.242 1.2z" inkscape:connector-curvature="0"/>
      <path id="path706" style="fill-rule:evenodd;fill:#a87831" d="m52.16 109.36c0.16 0 0.254-0.254 0.281-0.757 0.024-0.27 0.024-0.668 0-1.204 0.024-0.238 0.079-0.613 0.161-1.117 0.05-0.426-0.016-0.64-0.204-0.64-0.343 0-0.558 0.679-0.636 2.039-0.11 1.093 0.023 1.652 0.398 1.679z" inkscape:connector-curvature="0"/>
      <path id="path708" style="fill-rule:evenodd;fill:#a87831" d="m56.32 109.92c0.375 0.078 0.668-0.574 0.879-1.961 0.188-1.016 0.133-1.574-0.16-1.68-0.133-0.054-0.227 0.133-0.277 0.559-0.11 1.148-0.282 1.972-0.524 2.48-0.133 0.375-0.105 0.575 0.082 0.602z" inkscape:connector-curvature="0"/>
      <path id="path710" style="fill-rule:evenodd;fill:#a87831" d="m59.52 108.24c-0.055 0.321-0.227 0.828-0.52 1.524-0.055 0.105-0.039 0.183 0.039 0.238 0.055 0.055 0.133 0.055 0.242 0 0.211-0.133 0.426-0.559 0.641-1.281 0.078-0.321 0.105-0.653 0.078-1-0.051-0.293-0.121-0.453-0.199-0.481-0.106-0.023-0.199 0.309-0.281 1z" inkscape:connector-curvature="0"/>
    </g>
  </g>
<metadata><rdf:RDF><cc:Work><dc:format>image/svg+xml</dc:format><dc:type rdf:resource="http://purl.org/dc/dcmitype/StillImage"/><cc:license rdf:resource="http://creativecommons.org/licenses/publicdomain/"/><dc:publisher><cc:Agent rdf:about="http://openclipart.org/"><dc:title>Openclipart</dc:title></cc:Agent></dc:publisher></cc:Work><cc:License rdf:about="http://creativecommons.org/licenses/publicdomain/"><cc:permits rdf:resource="http://creativecommons.org/ns#Reproduction"/><cc:permits rdf:resource="http://creativecommons.org/ns#Distribution"/><cc:permits rdf:resource="http://creativecommons.org/ns#DerivativeWorks"/></cc:License></rdf:RDF></metadata></svg>
