<svg width="554" height="176" viewBox="0 0 554 176" fill="none" xmlns="http://www.w3.org/2000/svg">
<path d="M0 15C0 6.71572 6.71573 0 15 0H538.282C546.566 0 553.282 6.71573 553.282 15V161C553.282 169.284 546.566 176 538.282 176H15C6.71575 176 0 169.284 0 161V15Z" fill="#EF523D"/>
<path d="M88.1406 67.4844C90.7708 67.4844 93.1536 67.875 95.2891 68.6562C97.4245 69.4375 99.2344 70.5052 100.719 71.8594C102.229 73.2135 103.388 74.8021 104.195 76.625C105.003 78.4219 105.406 80.3359 105.406 82.3672V106.117C105.406 108.148 105.003 110.076 104.195 111.898C103.388 113.695 102.229 115.271 100.719 116.625C99.2344 117.979 97.4245 119.047 95.2891 119.828C93.1536 120.609 90.7708 121 88.1406 121H76.1094C73.4792 121 71.0964 120.609 68.9609 119.828C66.8255 119.047 65.0026 117.979 63.4922 116.625C62.0078 115.271 60.862 113.695 60.0547 111.898C59.2474 110.076 58.8438 108.148 58.8438 106.117V82.3672C58.8438 80.3359 59.2474 78.4219 60.0547 76.625C60.862 74.8021 62.0078 73.2135 63.4922 71.8594C65.0026 70.5052 66.8255 69.4375 68.9609 68.6562C71.0964 67.875 73.4792 67.4844 76.1094 67.4844H88.1406ZM95.4844 91.0781L94.9375 87.7188L92.4375 85.2578L88.375 84.8281H79.625L77.2422 84.3594C77.112 83.9167 77.0208 83.526 76.9688 83.1875C76.9167 82.8229 76.8255 82.4453 76.6953 82.0547V77.9531L77.2422 75.6484L79.8203 75.1406H89.7422L93.4141 75.8828L94.3516 71.625L89.8203 71H79.5469L75.6406 71.5469L73.1016 74.0469L72.5938 77.3281V82.6797L73.1016 85.9609L75.6406 88.4219L79.5469 88.9297H88.375L90.7578 89.3203C90.8359 89.7109 90.9271 90.0755 91.0312 90.4141C91.1354 90.7526 91.2266 91.1042 91.3047 91.4688V96.5859C91.2526 96.9245 91.1615 97.2891 91.0312 97.6797C90.9271 98.0703 90.8359 98.4349 90.7578 98.7734L88.2188 99.1641H78.5312L74.7031 98.5391L73.7266 102.758L78.2969 103.305H88.4531L92.4375 102.836L94.9375 100.375L95.4844 97.0156V91.0781Z" fill="white"/>
<path d="M141.812 71H119.234V75.1406H128.453V103.305H132.633V75.1406H141.812V71ZM134.391 67.4844C137.021 67.4844 139.404 67.875 141.539 68.6562C143.674 69.4375 145.484 70.5052 146.969 71.8594C148.479 73.2135 149.638 74.8021 150.445 76.625C151.253 78.4219 151.656 80.3359 151.656 82.3672V106.117C151.656 108.148 151.253 110.076 150.445 111.898C149.638 113.695 148.479 115.271 146.969 116.625C145.484 117.979 143.674 119.047 141.539 119.828C139.404 120.609 137.021 121 134.391 121H122.359C119.729 121 117.346 120.609 115.211 119.828C113.076 119.047 111.253 117.979 109.742 116.625C108.258 115.271 107.112 113.695 106.305 111.898C105.497 110.076 105.094 108.148 105.094 106.117V82.3672C105.094 80.3359 105.497 78.4219 106.305 76.625C107.112 74.8021 108.258 73.2135 109.742 71.8594C111.253 70.5052 113.076 69.4375 115.211 68.6562C117.346 67.875 119.729 67.4844 122.359 67.4844H134.391Z" fill="white"/>
<path d="M185.445 103.266V73.9688L182.789 71.4688L178.883 71H169.977L165.406 71.5469L166.383 75.8047L170.055 75.0625H178.766L181.109 75.5703L181.656 77.6406V86.7422L178.883 86.2734H169.977L166.07 86.8594L163.57 89.3203L163.023 92.5234V97.0938L163.57 100.375L166.07 102.836L169.977 103.305H178.531L181.578 102.836L185.445 103.266ZM181.656 98.7734L178.609 99.1641H170.211L167.75 98.7734L167.203 96.4297V93.0703L167.516 90.8438L170.211 90.4531H178.688L181.656 90.7656V98.7734ZM180.641 67.4844C183.271 67.4844 185.654 67.875 187.789 68.6562C189.924 69.4375 191.734 70.5052 193.219 71.8594C194.729 73.2135 195.888 74.8021 196.695 76.625C197.503 78.4219 197.906 80.3359 197.906 82.3672V106.117C197.906 108.148 197.503 110.076 196.695 111.898C195.888 113.695 194.729 115.271 193.219 116.625C191.734 117.979 189.924 119.047 187.789 119.828C185.654 120.609 183.271 121 180.641 121H168.609C165.979 121 163.596 120.609 161.461 119.828C159.326 119.047 157.503 117.979 155.992 116.625C154.508 115.271 153.362 113.695 152.555 111.898C151.747 110.076 151.344 108.148 151.344 106.117V82.3672C151.344 80.3359 151.747 78.4219 152.555 76.625C153.362 74.8021 154.508 73.2135 155.992 71.8594C157.503 70.5052 159.326 69.4375 161.461 68.6562C163.596 67.875 165.979 67.4844 168.609 67.4844H180.641Z" fill="white"/>
<path d="M226.891 67.4844C229.521 67.4844 231.904 67.875 234.039 68.6562C236.174 69.4375 237.984 70.5052 239.469 71.8594C240.979 73.2135 242.138 74.8021 242.945 76.625C243.753 78.4219 244.156 80.3359 244.156 82.3672V106.117C244.156 108.148 243.753 110.076 242.945 111.898C242.138 113.695 240.979 115.271 239.469 116.625C237.984 117.979 236.174 119.047 234.039 119.828C231.904 120.609 229.521 121 226.891 121H214.859C212.229 121 209.846 120.609 207.711 119.828C205.576 119.047 203.753 117.979 202.242 116.625C200.758 115.271 199.612 113.695 198.805 111.898C197.997 110.076 197.594 108.148 197.594 106.117V82.3672C197.594 80.3359 197.997 78.4219 198.805 76.625C199.612 74.8021 200.758 73.2135 202.242 71.8594C203.753 70.5052 205.576 69.4375 207.711 68.6562C209.846 67.875 212.229 67.4844 214.859 67.4844H226.891ZM228.883 93.6562V103.305H233.023V93.2266L231.656 89.6328L227.203 88.0312L231.5 85.9609L232.711 82.4453V78.1094L232.242 74.8281L229.664 71.5469L225.758 71H211.188V103.305H215.367V90.2969H225.523L228.297 91.5469L228.883 93.6562ZM225.523 75.1406L228.297 76.3516L228.57 78.6172V82.7578L227.984 84.9062L225.523 86.1172H215.367V75.1406H225.523Z" fill="white"/>
<path d="M280.562 71H257.984V75.1406H267.203V103.305H271.383V75.1406H280.562V71ZM273.141 67.4844C275.771 67.4844 278.154 67.875 280.289 68.6562C282.424 69.4375 284.234 70.5052 285.719 71.8594C287.229 73.2135 288.388 74.8021 289.195 76.625C290.003 78.4219 290.406 80.3359 290.406 82.3672V106.117C290.406 108.148 290.003 110.076 289.195 111.898C288.388 113.695 287.229 115.271 285.719 116.625C284.234 117.979 282.424 119.047 280.289 119.828C278.154 120.609 275.771 121 273.141 121H261.109C258.479 121 256.096 120.609 253.961 119.828C251.826 119.047 250.003 117.979 248.492 116.625C247.008 115.271 245.862 113.695 245.055 111.898C244.247 110.076 243.844 108.148 243.844 106.117V82.3672C243.844 80.3359 244.247 78.4219 245.055 76.625C245.862 74.8021 247.008 73.2135 248.492 71.8594C250.003 70.5052 251.826 69.4375 253.961 68.6562C256.096 67.875 258.479 67.4844 261.109 67.4844H273.141Z" fill="white"/>
<path d="M322.281 75.0625H332.438L336.461 75.7266L337.242 71.5469L332.711 71H322.203L318.219 71.625L315.719 74.125L315.172 77.4062V97.0156L315.719 100.375L318.297 102.836L322.203 103.305H331.969L335.914 102.836L338.453 100.375L339 97.0156V86.7422H327.672V90.9219H334.859V96.4297C334.729 96.8464 334.638 97.237 334.586 97.6016C334.534 97.9661 334.443 98.3568 334.312 98.7734L331.734 99.1641H322.281L319.898 98.7734L319.352 96.2734V77.7969L319.742 75.6484L322.281 75.0625ZM330.953 67.4844C333.583 67.4844 335.966 67.875 338.102 68.6562C340.237 69.4375 342.047 70.5052 343.531 71.8594C345.042 73.2135 346.201 74.8021 347.008 76.625C347.815 78.4219 348.219 80.3359 348.219 82.3672V106.117C348.219 108.148 347.815 110.076 347.008 111.898C346.201 113.695 345.042 115.271 343.531 116.625C342.047 117.979 340.237 119.047 338.102 119.828C335.966 120.609 333.583 121 330.953 121H318.922C316.292 121 313.909 120.609 311.773 119.828C309.638 119.047 307.815 117.979 306.305 116.625C304.82 115.271 303.674 113.695 302.867 111.898C302.06 110.076 301.656 108.148 301.656 106.117V82.3672C301.656 80.3359 302.06 78.4219 302.867 76.625C303.674 74.8021 304.82 73.2135 306.305 71.8594C307.815 70.5052 309.638 69.4375 311.773 68.6562C313.909 67.875 316.292 67.4844 318.922 67.4844H330.953Z" fill="white"/>
<path d="M382.008 103.266V73.9688L379.352 71.4688L375.445 71H366.539L361.969 71.5469L362.945 75.8047L366.617 75.0625H375.328L377.672 75.5703L378.219 77.6406V86.7422L375.445 86.2734H366.539L362.633 86.8594L360.133 89.3203L359.586 92.5234V97.0938L360.133 100.375L362.633 102.836L366.539 103.305H375.094L378.141 102.836L382.008 103.266ZM378.219 98.7734L375.172 99.1641H366.773L364.312 98.7734L363.766 96.4297V93.0703L364.078 90.8438L366.773 90.4531H375.25L378.219 90.7656V98.7734ZM377.203 67.4844C379.833 67.4844 382.216 67.875 384.352 68.6562C386.487 69.4375 388.297 70.5052 389.781 71.8594C391.292 73.2135 392.451 74.8021 393.258 76.625C394.065 78.4219 394.469 80.3359 394.469 82.3672V106.117C394.469 108.148 394.065 110.076 393.258 111.898C392.451 113.695 391.292 115.271 389.781 116.625C388.297 117.979 386.487 119.047 384.352 119.828C382.216 120.609 379.833 121 377.203 121H365.172C362.542 121 360.159 120.609 358.023 119.828C355.888 119.047 354.065 117.979 352.555 116.625C351.07 115.271 349.924 113.695 349.117 111.898C348.31 110.076 347.906 108.148 347.906 106.117V82.3672C347.906 80.3359 348.31 78.4219 349.117 76.625C349.924 74.8021 351.07 73.2135 352.555 71.8594C354.065 70.5052 355.888 69.4375 358.023 68.6562C360.159 67.875 362.542 67.4844 365.172 67.4844H377.203Z" fill="white"/>
<path d="M423.453 67.4844C426.083 67.4844 428.466 67.875 430.602 68.6562C432.737 69.4375 434.547 70.5052 436.031 71.8594C437.542 73.2135 438.701 74.8021 439.508 76.625C440.315 78.4219 440.719 80.3359 440.719 82.3672V106.117C440.719 108.148 440.315 110.076 439.508 111.898C438.701 113.695 437.542 115.271 436.031 116.625C434.547 117.979 432.737 119.047 430.602 119.828C428.466 120.609 426.083 121 423.453 121H411.422C408.792 121 406.409 120.609 404.273 119.828C402.138 119.047 400.315 117.979 398.805 116.625C397.32 115.271 396.174 113.695 395.367 111.898C394.56 110.076 394.156 108.148 394.156 106.117V82.3672C394.156 80.3359 394.56 78.4219 395.367 76.625C396.174 74.8021 397.32 73.2135 398.805 71.8594C400.315 70.5052 402.138 69.4375 404.273 68.6562C406.409 67.875 408.792 67.4844 411.422 67.4844H423.453ZM417.359 71.625L415.211 71H410.094L406.812 71.5469L404.312 74.0469V103.305H408.492V75.4922C408.857 75.4141 409.182 75.362 409.469 75.3359C409.755 75.3099 410.068 75.2448 410.406 75.1406H414.859C415.146 75.2448 415.419 75.3099 415.68 75.3359C415.966 75.362 416.253 75.4141 416.539 75.4922V92.0547H420.719V75.4922L422.398 75.1406H426.891C427.203 75.2448 427.516 75.3099 427.828 75.3359C428.141 75.362 428.466 75.4141 428.805 75.4922V103.305H432.945V74.0469L430.484 71.5469L427.203 71H422.086L419.977 71.625L418.648 74.3203L417.359 71.625Z" fill="white"/>
<path d="M469.703 67.4844C472.333 67.4844 474.716 67.875 476.852 68.6562C478.987 69.4375 480.797 70.5052 482.281 71.8594C483.792 73.2135 484.951 74.8021 485.758 76.625C486.565 78.4219 486.969 80.3359 486.969 82.3672V106.117C486.969 108.148 486.565 110.076 485.758 111.898C484.951 113.695 483.792 115.271 482.281 116.625C480.797 117.979 478.987 119.047 476.852 119.828C474.716 120.609 472.333 121 469.703 121H457.672C455.042 121 452.659 120.609 450.523 119.828C448.388 119.047 446.565 117.979 445.055 116.625C443.57 115.271 442.424 113.695 441.617 111.898C440.81 110.076 440.406 108.148 440.406 106.117V82.3672C440.406 80.3359 440.81 78.4219 441.617 76.625C442.424 74.8021 443.57 73.2135 445.055 71.8594C446.565 70.5052 448.388 69.4375 450.523 68.6562C452.659 67.875 455.042 67.4844 457.672 67.4844H469.703ZM474.82 77.25L474.234 73.9688L471.773 71.4688L467.828 71H459.352L455.445 71.4688L452.984 73.9688L452.398 77.25V95.8047L452.984 99.0859L455.445 101.547L459.352 102.055H469.195L473.766 101.469L472.789 97.25L469.117 97.875H459.625L457.125 97.4844L456.578 95.1406V87.0938H474.82V77.25ZM456.578 82.9922V77.7188L456.891 75.4922L459.625 75.0625H467.594L470.25 75.4922L470.641 77.7969V82.9922H456.578Z" fill="white"/>
</svg>
