<svg width="176" height="175" viewBox="0 0 176 175" fill="none" xmlns="http://www.w3.org/2000/svg">
<path d="M106.855 1.46308L109.766 44.6257L82.2516 37.1021L106.855 1.46308ZM49.7713 50.5186L46.269 7.39992L75.8731 39.0364L49.7713 50.5186ZM128.341 86.2791C128.341 109.343 109.056 128.066 85.2336 128.066C61.4116 128.066 42.1265 109.343 42.1265 86.2791C42.1265 63.2155 61.4116 44.4926 85.2336 44.4926C109.056 44.4926 128.341 63.2155 128.341 86.2791ZM114.964 46.2813L156.193 32.7597L132.294 68.8698L114.964 46.2813ZM130.869 108.953L150.2 147.684L110.919 129.28L130.869 108.953ZM34.8295 80.5808L2.61053 51.5959L45.9235 54.3847L34.8295 80.5808ZM44.8468 113.751L1.44563 113.315L35.7421 86.8039L44.8468 113.751ZM73.2074 133.661L39.2978 160.664L49.0614 118.513L73.2074 133.661ZM97.6989 173.497L78.0452 134.925L106.317 131.098L97.6989 173.497ZM133.496 75.2084L174.474 89.465L133.469 103.643L133.496 75.2084Z" fill="#F4ED31" stroke="#D0CA2F"/>
</svg>
