<svg width="132" height="125" viewBox="0 0 132 125" fill="none" xmlns="http://www.w3.org/2000/svg">
<path d="M86.6043 0.232713C89.5468 1.75652 88.1233 10.3468 83.4248 19.4197C78.7263 28.4925 72.532 34.6122 69.5895 33.0884C66.6471 31.5646 68.0706 22.9743 72.7691 13.9015C77.4676 4.82861 83.6618 -1.2911 86.6043 0.232713Z" fill="#5FAD52"/>
<path d="M65.0466 51.0192C65.0466 51.0192 7.82475 20.5702 26.8891 20.5705C47.7617 20.5708 83.7253 24.4739 104.225 20.5708C124.726 16.6678 65.0466 51.0192 65.0466 51.0192Z" fill="#5FAD52"/>
<path d="M62.88 2.92223C63.2203 2.14481 64.2879 2.14507 64.6281 2.92252C66.2709 6.67655 69.8575 15.164 71.9091 22.2186C72.093 22.8508 71.6139 23.4739 70.9554 23.4739H57.4633C56.8395 23.4739 56.3676 22.9091 56.4916 22.2978C58.0908 14.4098 61.3208 6.48448 62.88 2.92223Z" fill="#5FAD52"/>
<ellipse cx="54" cy="77.5" rx="54" ry="47.5" fill="#FB2F2F"/>
<ellipse cx="80" cy="77.5" rx="52" ry="47.5" fill="#FB2F2F"/>
<path d="M74.0994 82.0007C74.486 85.2778 70.5411 88.2151 65.6534 88.2895C60.7657 88.3639 56.7331 85.548 57.0199 82.2607" stroke="black" stroke-opacity="0.75" stroke-width="6" stroke-linecap="round"/>
<ellipse cx="39.5" cy="75.5" rx="8.5" ry="6.5" fill="#FBA7CF" fill-opacity="0.8"/>
<ellipse cx="92.5" cy="75.5" rx="8.5" ry="6.5" fill="#FBA7CF" fill-opacity="0.8"/>
<path d="M40.0163 68.5C39.7403 64.5031 43.0098 61 47.0163 61C51.0227 61 54.2923 64.5031 54.0163 68.5" stroke="black" stroke-opacity="0.75" stroke-width="6" stroke-linecap="round"/>
<path d="M77.0163 68.5C76.7403 64.5031 80.0098 61 84.0163 61C88.0227 61 91.2923 64.5031 91.0163 68.5" stroke="black" stroke-opacity="0.75" stroke-width="6" stroke-linecap="round"/>
</svg>
